<mxfile host="app.diagrams.net" modified="2022-02-21T15:52:44.470Z" agent="5.0 (Windows NT 10.0; Win64; x64) AppleWebKit/537.36 (KHTML, like Gecko) Chrome/98.0.4758.102 Safari/537.36" etag="MVTaFDJuGjahtZjG3VJx" version="16.6.1" type="github">
  <diagram name="Page-1" id="2c0d36ab-eaac-3732-788b-9136903baeff">
    <mxGraphModel dx="3346" dy="434" grid="1" gridSize="10" guides="1" tooltips="1" connect="1" arrows="1" fold="1" page="1" pageScale="1.5" pageWidth="1654" pageHeight="1169" background="none" math="0" shadow="0">
      <root>
        <mxCell id="0" />
        <mxCell id="1" parent="0" />
        <mxCell id="123" value="" style="fillColor=#AE4132;strokeColor=none;opacity=30;" parent="1" vertex="1">
          <mxGeometry x="747" y="175.50000000000003" width="210" height="99.99999999999994" as="geometry" />
        </mxCell>
        <mxCell id="122" value="" style="fillColor=#10739E;strokeColor=none;opacity=30;" parent="1" vertex="1">
          <mxGeometry x="-1010" y="325.5" width="3580" height="100" as="geometry" />
        </mxCell>
        <mxCell id="121" value="" style="fillColor=#F2931E;strokeColor=none;opacity=30;" parent="1" vertex="1">
          <mxGeometry x="2180" y="720" width="150" height="270" as="geometry" />
        </mxCell>
        <mxCell id="120" value="" style="fillColor=#F2931E;strokeColor=none;opacity=30;" parent="1" vertex="1">
          <mxGeometry x="1650" y="480" width="150" height="90" as="geometry" />
        </mxCell>
        <mxCell id="119" value="" style="fillColor=#F2931E;strokeColor=none;opacity=30;" parent="1" vertex="1">
          <mxGeometry x="980" y="705.5" width="150" height="270" as="geometry" />
        </mxCell>
        <mxCell id="118" value="" style="fillColor=#F2931E;strokeColor=none;opacity=30;" parent="1" vertex="1">
          <mxGeometry x="807.0000000000001" y="1140.0000000000002" width="149.99999999999991" height="439.9999999999998" as="geometry" />
        </mxCell>
        <mxCell id="117" value="" style="fillColor=#F2931E;strokeColor=none;opacity=30;" parent="1" vertex="1">
          <mxGeometry x="-700" y="1375" width="460" height="170" as="geometry" />
        </mxCell>
        <mxCell id="116" value="" style="fillColor=#10739E;strokeColor=none;opacity=30;" parent="1" vertex="1">
          <mxGeometry x="2180" y="1000.0000000000002" width="150" height="80" as="geometry" />
        </mxCell>
        <mxCell id="115" value="" style="fillColor=#10739E;strokeColor=none;opacity=30;" parent="1" vertex="1">
          <mxGeometry x="1830" y="730" width="330" height="80" as="geometry" />
        </mxCell>
        <mxCell id="114" value="" style="fillColor=#10739E;strokeColor=none;opacity=30;" parent="1" vertex="1">
          <mxGeometry x="979.9999999999999" y="985.5000000000001" width="150" height="80" as="geometry" />
        </mxCell>
        <mxCell id="113" value="" style="fillColor=#10739E;strokeColor=none;opacity=30;" parent="1" vertex="1">
          <mxGeometry x="370" y="1305" width="217" height="80" as="geometry" />
        </mxCell>
        <mxCell id="112" value="" style="fillColor=#10739E;strokeColor=none;opacity=30;" parent="1" vertex="1">
          <mxGeometry x="475" y="1420" width="150" height="80" as="geometry" />
        </mxCell>
        <mxCell id="110" value="" style="fillColor=#12AAB5;strokeColor=none;opacity=30;" parent="1" vertex="1">
          <mxGeometry x="1830" y="460.0000000000001" width="500" height="80" as="geometry" />
        </mxCell>
        <mxCell id="109" value="" style="fillColor=#12AAB5;strokeColor=none;opacity=30;" parent="1" vertex="1">
          <mxGeometry x="230" y="435.5" width="697" height="80" as="geometry" />
        </mxCell>
        <mxCell id="2" value="idp/datapipeline" style="rounded=1;fillColor=#23445D;gradientColor=none;strokeColor=none;fontColor=#FFFFFF;fontStyle=1;fontFamily=Tahoma;fontSize=14" parent="1" vertex="1">
          <mxGeometry x="757" y="185.5" width="190" height="80" as="geometry" />
        </mxCell>
        <mxCell id="4" value="cypress" style="rounded=1;fillColor=#23445D;gradientColor=none;strokeColor=none;fontColor=#FFFFFF;fontStyle=1;fontFamily=Tahoma;fontSize=14" parent="1" vertex="1">
          <mxGeometry x="2030" y="335.5" width="130" height="60" as="geometry" />
        </mxCell>
        <mxCell id="9" value="" style="edgeStyle=elbowEdgeStyle;elbow=vertical;strokeWidth=2;rounded=0" parent="1" source="2" target="4" edge="1">
          <mxGeometry x="337" y="215.5" width="100" height="100" as="geometry">
            <mxPoint x="337" y="315.5" as="sourcePoint" />
            <mxPoint x="437" y="215.5" as="targetPoint" />
          </mxGeometry>
        </mxCell>
        <mxCell id="10" value="test-env" style="rounded=1;fillColor=#23445D;gradientColor=none;strokeColor=none;fontColor=#FFFFFF;fontStyle=1;fontFamily=Tahoma;fontSize=14" parent="1" vertex="1">
          <mxGeometry x="1660" y="335.5" width="130" height="60" as="geometry" />
        </mxCell>
        <mxCell id="12" value="src" style="rounded=1;fillColor=#23445D;gradientColor=none;strokeColor=none;fontColor=#FFFFFF;fontStyle=1;fontFamily=Tahoma;fontSize=14" parent="1" vertex="1">
          <mxGeometry x="-40" y="335.5" width="130" height="60" as="geometry" />
        </mxCell>
        <mxCell id="13" value="build-reference-&#xa;url-configuration" style="rounded=1;fillColor=#23445D;gradientColor=none;strokeColor=none;fontColor=#FFFFFF;fontStyle=1;fontFamily=Tahoma;fontSize=14" parent="1" vertex="1">
          <mxGeometry x="-996" y="335.5" width="166" height="60" as="geometry" />
        </mxCell>
        <mxCell id="16" value="Programming" style="rounded=1;fillColor=#23445D;gradientColor=none;strokeColor=none;fontColor=#FFFFFF;fontStyle=1;fontFamily=Tahoma;fontSize=14" parent="1" vertex="1">
          <mxGeometry x="745" y="1235" width="130" height="60" as="geometry" />
        </mxCell>
        <mxCell id="17" value="HTTP" style="rounded=1;fillColor=#23445D;gradientColor=none;strokeColor=none;fontColor=#FFFFFF;fontStyle=1;fontFamily=Tahoma;fontSize=14" parent="1" vertex="1">
          <mxGeometry x="745" y="1325" width="130" height="60" as="geometry" />
        </mxCell>
        <mxCell id="18" value="HTS" style="rounded=1;fillColor=#23445D;gradientColor=none;strokeColor=none;fontColor=#FFFFFF;fontStyle=1;fontFamily=Tahoma;fontSize=14" parent="1" vertex="1">
          <mxGeometry x="745" y="1415" width="130" height="60" as="geometry" />
        </mxCell>
        <mxCell id="19" value="CVS" style="rounded=1;fillColor=#23445D;gradientColor=none;strokeColor=none;fontColor=#FFFFFF;fontStyle=1;fontFamily=Tahoma;fontSize=14" parent="1" vertex="1">
          <mxGeometry x="745" y="1505" width="130" height="60" as="geometry" />
        </mxCell>
        <mxCell id="20" value="Client / Server" style="rounded=1;fillColor=#23445D;gradientColor=none;strokeColor=none;fontColor=#FFFFFF;fontStyle=1;fontFamily=Tahoma;fontSize=14" parent="1" vertex="1">
          <mxGeometry x="745" y="1595" width="130" height="60" as="geometry" />
        </mxCell>
        <mxCell id="23" value="Data Collection" style="rounded=1;fillColor=#23445D;gradientColor=none;strokeColor=none;fontColor=#FFFFFF;fontStyle=1;fontFamily=Tahoma;fontSize=14" parent="1" vertex="1">
          <mxGeometry x="745" y="1685" width="130" height="60" as="geometry" />
        </mxCell>
        <mxCell id="25" value="@types" style="rounded=1;fillColor=#23445D;gradientColor=none;strokeColor=none;fontColor=#FFFFFF;fontStyle=1;fontFamily=Tahoma;fontSize=14" parent="1" vertex="1">
          <mxGeometry x="-750" y="455.5" width="130" height="60" as="geometry" />
        </mxCell>
        <mxCell id="29" value="app" style="rounded=1;fillColor=#23445D;gradientColor=none;strokeColor=none;fontColor=#FFFFFF;fontStyle=1;fontFamily=Tahoma;fontSize=14" parent="1" vertex="1">
          <mxGeometry x="-345" y="455.5" width="130" height="60" as="geometry" />
        </mxCell>
        <mxCell id="30" value="components" style="rounded=1;fillColor=#23445D;gradientColor=none;strokeColor=none;fontColor=#FFFFFF;fontStyle=1;fontFamily=Tahoma;fontSize=14" parent="1" vertex="1">
          <mxGeometry x="-580" y="550" width="130" height="60" as="geometry" />
        </mxCell>
        <mxCell id="31" value="constants" style="rounded=1;fillColor=#23445D;gradientColor=none;strokeColor=none;fontColor=#FFFFFF;fontStyle=1;fontFamily=Tahoma;fontSize=14" parent="1" vertex="1">
          <mxGeometry x="-400" y="550" width="130" height="60" as="geometry" />
        </mxCell>
        <mxCell id="32" value="core" style="rounded=1;fillColor=#23445D;gradientColor=none;strokeColor=none;fontColor=#FFFFFF;fontStyle=1;fontFamily=Tahoma;fontSize=14" parent="1" vertex="1">
          <mxGeometry x="-220" y="550" width="130" height="60" as="geometry" />
        </mxCell>
        <mxCell id="33" value="assets" style="rounded=1;fillColor=#23445D;gradientColor=none;strokeColor=none;fontColor=#FFFFFF;fontStyle=1;fontFamily=Tahoma;fontSize=14" parent="1" vertex="1">
          <mxGeometry x="990" y="455.5" width="130" height="60" as="geometry" />
        </mxCell>
        <mxCell id="34" value="Programming" style="rounded=1;fillColor=#23445D;gradientColor=none;strokeColor=none;fontColor=#FFFFFF;fontStyle=1;fontFamily=Tahoma;fontSize=14" parent="1" vertex="1">
          <mxGeometry x="990" y="545.5" width="130" height="60" as="geometry" />
        </mxCell>
        <mxCell id="35" value="HTTP" style="rounded=1;fillColor=#23445D;gradientColor=none;strokeColor=none;fontColor=#FFFFFF;fontStyle=1;fontFamily=Tahoma;fontSize=14" parent="1" vertex="1">
          <mxGeometry x="990" y="635.5" width="130" height="60" as="geometry" />
        </mxCell>
        <mxCell id="36" value="HTS" style="rounded=1;fillColor=#23445D;gradientColor=none;strokeColor=none;fontColor=#FFFFFF;fontStyle=1;fontFamily=Tahoma;fontSize=14" parent="1" vertex="1">
          <mxGeometry x="990" y="725.5" width="130" height="60" as="geometry" />
        </mxCell>
        <mxCell id="37" value="CVS" style="rounded=1;fillColor=#23445D;gradientColor=none;strokeColor=none;fontColor=#FFFFFF;fontStyle=1;fontFamily=Tahoma;fontSize=14" parent="1" vertex="1">
          <mxGeometry x="990" y="815.5" width="130" height="60" as="geometry" />
        </mxCell>
        <mxCell id="38" value="Client / Server" style="rounded=1;fillColor=#23445D;gradientColor=none;strokeColor=none;fontColor=#FFFFFF;fontStyle=1;fontFamily=Tahoma;fontSize=14" parent="1" vertex="1">
          <mxGeometry x="990" y="905.5" width="130" height="60" as="geometry" />
        </mxCell>
        <mxCell id="39" value="Data Collection" style="rounded=1;fillColor=#23445D;gradientColor=none;strokeColor=none;fontColor=#FFFFFF;fontStyle=1;fontFamily=Tahoma;fontSize=14" parent="1" vertex="1">
          <mxGeometry x="990" y="995.5" width="130" height="60" as="geometry" />
        </mxCell>
        <mxCell id="41" value="FAQ" style="rounded=1;fillColor=#23445D;gradientColor=none;strokeColor=none;fontColor=#FFFFFF;fontStyle=1;fontFamily=Tahoma;fontSize=14" parent="1" vertex="1">
          <mxGeometry x="1660" y="490" width="130" height="60" as="geometry" />
        </mxCell>
        <mxCell id="42" value="Know Issues" style="rounded=1;fillColor=#23445D;gradientColor=none;strokeColor=none;fontColor=#FFFFFF;fontStyle=1;fontFamily=Tahoma;fontSize=14" parent="1" vertex="1">
          <mxGeometry x="1660" y="580" width="130" height="60" as="geometry" />
        </mxCell>
        <mxCell id="43" value="Knowhow" style="rounded=1;fillColor=#23445D;gradientColor=none;strokeColor=none;fontColor=#FFFFFF;fontStyle=1;fontFamily=Tahoma;fontSize=14" parent="1" vertex="1">
          <mxGeometry x="1660" y="670" width="130" height="60" as="geometry" />
        </mxCell>
        <mxCell id="44" value="SI" style="rounded=1;fillColor=#23445D;gradientColor=none;strokeColor=none;fontColor=#FFFFFF;fontStyle=1;fontFamily=Tahoma;fontSize=14" parent="1" vertex="1">
          <mxGeometry x="1840" y="470.00000000000006" width="130" height="60" as="geometry" />
        </mxCell>
        <mxCell id="45" value="Programming" style="rounded=1;fillColor=#23445D;gradientColor=none;strokeColor=none;fontColor=#FFFFFF;fontStyle=1;fontFamily=Tahoma;fontSize=14" parent="1" vertex="1">
          <mxGeometry x="1840" y="560" width="130" height="60" as="geometry" />
        </mxCell>
        <mxCell id="46" value="Client / Server" style="rounded=1;fillColor=#23445D;gradientColor=none;strokeColor=none;fontColor=#FFFFFF;fontStyle=1;fontFamily=Tahoma;fontSize=14" parent="1" vertex="1">
          <mxGeometry x="1840" y="650" width="130" height="60" as="geometry" />
        </mxCell>
        <mxCell id="47" value="Data Collection" style="rounded=1;fillColor=#23445D;gradientColor=none;strokeColor=none;fontColor=#FFFFFF;fontStyle=1;fontFamily=Tahoma;fontSize=14" parent="1" vertex="1">
          <mxGeometry x="1840" y="740.0000000000001" width="130" height="60" as="geometry" />
        </mxCell>
        <mxCell id="48" value="SSI" style="rounded=1;fillColor=#23445D;gradientColor=none;strokeColor=none;fontColor=#FFFFFF;fontStyle=1;fontFamily=Tahoma;fontSize=14" parent="1" vertex="1">
          <mxGeometry x="2015" y="470.00000000000006" width="130" height="60" as="geometry" />
        </mxCell>
        <mxCell id="49" value="Programming" style="rounded=1;fillColor=#23445D;gradientColor=none;strokeColor=none;fontColor=#FFFFFF;fontStyle=1;fontFamily=Tahoma;fontSize=14" parent="1" vertex="1">
          <mxGeometry x="2015" y="560" width="130" height="60" as="geometry" />
        </mxCell>
        <mxCell id="50" value="Client / Server" style="rounded=1;fillColor=#23445D;gradientColor=none;strokeColor=none;fontColor=#FFFFFF;fontStyle=1;fontFamily=Tahoma;fontSize=14" parent="1" vertex="1">
          <mxGeometry x="2015" y="650" width="130" height="60" as="geometry" />
        </mxCell>
        <mxCell id="51" value="Data Collection" style="rounded=1;fillColor=#23445D;gradientColor=none;strokeColor=none;fontColor=#FFFFFF;fontStyle=1;fontFamily=Tahoma;fontSize=14" parent="1" vertex="1">
          <mxGeometry x="2015" y="740.0000000000001" width="130" height="60" as="geometry" />
        </mxCell>
        <mxCell id="52" value="XMI" style="rounded=1;fillColor=#23445D;gradientColor=none;strokeColor=none;fontColor=#FFFFFF;fontStyle=1;fontFamily=Tahoma;fontSize=14" parent="1" vertex="1">
          <mxGeometry x="2190" y="470.00000000000006" width="130" height="60" as="geometry" />
        </mxCell>
        <mxCell id="53" value="Programming" style="rounded=1;fillColor=#23445D;gradientColor=none;strokeColor=none;fontColor=#FFFFFF;fontStyle=1;fontFamily=Tahoma;fontSize=14" parent="1" vertex="1">
          <mxGeometry x="2190" y="560" width="130" height="60" as="geometry" />
        </mxCell>
        <mxCell id="54" value="HTTP" style="rounded=1;fillColor=#23445D;gradientColor=none;strokeColor=none;fontColor=#FFFFFF;fontStyle=1;fontFamily=Tahoma;fontSize=14" parent="1" vertex="1">
          <mxGeometry x="2190" y="650" width="130" height="60" as="geometry" />
        </mxCell>
        <mxCell id="55" value="HTS" style="rounded=1;fillColor=#23445D;gradientColor=none;strokeColor=none;fontColor=#FFFFFF;fontStyle=1;fontFamily=Tahoma;fontSize=14" parent="1" vertex="1">
          <mxGeometry x="2190" y="740.0000000000001" width="130" height="60" as="geometry" />
        </mxCell>
        <mxCell id="56" value="CVS" style="rounded=1;fillColor=#23445D;gradientColor=none;strokeColor=none;fontColor=#FFFFFF;fontStyle=1;fontFamily=Tahoma;fontSize=14" parent="1" vertex="1">
          <mxGeometry x="2190" y="830.0000000000001" width="130" height="60" as="geometry" />
        </mxCell>
        <mxCell id="57" value="Client / Server" style="rounded=1;fillColor=#23445D;gradientColor=none;strokeColor=none;fontColor=#FFFFFF;fontStyle=1;fontFamily=Tahoma;fontSize=14" parent="1" vertex="1">
          <mxGeometry x="2190" y="920.0000000000001" width="130" height="60" as="geometry" />
        </mxCell>
        <mxCell id="58" value="Data Collection" style="rounded=1;fillColor=#23445D;gradientColor=none;strokeColor=none;fontColor=#FFFFFF;fontStyle=1;fontFamily=Tahoma;fontSize=14" parent="1" vertex="1">
          <mxGeometry x="2190" y="1010" width="130" height="60" as="geometry" />
        </mxCell>
        <mxCell id="59" value="" style="edgeStyle=elbowEdgeStyle;elbow=vertical;strokeWidth=2;rounded=0" parent="1" source="2" target="12" edge="1">
          <mxGeometry x="347" y="225.5" width="100" height="100" as="geometry">
            <mxPoint x="861.9999999999999" y="275.5" as="sourcePoint" />
            <mxPoint x="1466.9999999999998" y="345.5" as="targetPoint" />
          </mxGeometry>
        </mxCell>
        <mxCell id="61" value="" style="edgeStyle=elbowEdgeStyle;elbow=vertical;strokeWidth=2;rounded=0" parent="1" source="2" target="13" edge="1">
          <mxGeometry x="-23" y="135.5" width="100" height="100" as="geometry">
            <mxPoint x="-23" y="235.5" as="sourcePoint" />
            <mxPoint x="77" y="135.5" as="targetPoint" />
          </mxGeometry>
        </mxCell>
        <mxCell id="64" value="" style="edgeStyle=elbowEdgeStyle;elbow=horizontal;strokeWidth=2;rounded=0" parent="1" target="16" edge="1">
          <mxGeometry x="485" y="915" width="100" height="100" as="geometry">
            <mxPoint x="710" y="1175" as="sourcePoint" />
            <mxPoint x="585" y="915" as="targetPoint" />
            <Array as="points">
              <mxPoint x="710" y="1215" />
            </Array>
          </mxGeometry>
        </mxCell>
        <mxCell id="65" value="" style="edgeStyle=elbowEdgeStyle;elbow=horizontal;strokeWidth=2;rounded=0" parent="1" target="17" edge="1">
          <mxGeometry x="485" y="915" width="100" height="100" as="geometry">
            <mxPoint x="710" y="1175" as="sourcePoint" />
            <mxPoint x="585" y="915" as="targetPoint" />
            <Array as="points">
              <mxPoint x="710" y="1255" />
            </Array>
          </mxGeometry>
        </mxCell>
        <mxCell id="66" value="" style="edgeStyle=elbowEdgeStyle;elbow=horizontal;strokeWidth=2;rounded=0" parent="1" target="18" edge="1">
          <mxGeometry x="485" y="915" width="100" height="100" as="geometry">
            <mxPoint x="710" y="1175" as="sourcePoint" />
            <mxPoint x="585" y="915" as="targetPoint" />
            <Array as="points">
              <mxPoint x="710" y="1305" />
            </Array>
          </mxGeometry>
        </mxCell>
        <mxCell id="67" value="" style="edgeStyle=elbowEdgeStyle;elbow=horizontal;strokeWidth=2;rounded=0" parent="1" target="19" edge="1">
          <mxGeometry x="485" y="915" width="100" height="100" as="geometry">
            <mxPoint x="710" y="1175" as="sourcePoint" />
            <mxPoint x="585" y="915" as="targetPoint" />
            <Array as="points">
              <mxPoint x="710" y="1355" />
            </Array>
          </mxGeometry>
        </mxCell>
        <mxCell id="68" value="" style="edgeStyle=elbowEdgeStyle;elbow=horizontal;strokeWidth=2;rounded=0" parent="1" target="20" edge="1">
          <mxGeometry x="485" y="915" width="100" height="100" as="geometry">
            <mxPoint x="710" y="1175" as="sourcePoint" />
            <mxPoint x="585" y="915" as="targetPoint" />
            <Array as="points">
              <mxPoint x="710" y="1395" />
            </Array>
          </mxGeometry>
        </mxCell>
        <mxCell id="69" value="" style="edgeStyle=elbowEdgeStyle;elbow=horizontal;strokeWidth=2;rounded=0" parent="1" target="23" edge="1">
          <mxGeometry x="485" y="915" width="100" height="100" as="geometry">
            <mxPoint x="710" y="1175" as="sourcePoint" />
            <mxPoint x="585" y="915" as="targetPoint" />
            <Array as="points">
              <mxPoint x="710" y="1445" />
            </Array>
          </mxGeometry>
        </mxCell>
        <mxCell id="70" value="" style="edgeStyle=elbowEdgeStyle;elbow=horizontal;strokeWidth=2;rounded=0;entryX=0;entryY=0.25;entryDx=0;entryDy=0;exitX=0;exitY=0.5;exitDx=0;exitDy=0;" parent="1" source="25" target="LBzVhK5G867ArXUdgfji-221" edge="1">
          <mxGeometry x="-993" y="135.5" width="100" height="100" as="geometry">
            <mxPoint x="-993" y="235.5" as="sourcePoint" />
            <mxPoint x="-553" y="575.5" as="targetPoint" />
            <Array as="points">
              <mxPoint x="-760" y="570" />
            </Array>
          </mxGeometry>
        </mxCell>
        <mxCell id="76" value="" style="edgeStyle=elbowEdgeStyle;elbow=horizontal;strokeWidth=2;rounded=0" parent="1" source="33" target="34" edge="1">
          <mxGeometry x="200" y="135.5" width="100" height="100" as="geometry">
            <mxPoint x="200" y="235.5" as="sourcePoint" />
            <mxPoint x="300" y="135.5" as="targetPoint" />
            <Array as="points">
              <mxPoint x="970" y="535.5" />
            </Array>
          </mxGeometry>
        </mxCell>
        <mxCell id="77" value="" style="edgeStyle=elbowEdgeStyle;elbow=horizontal;strokeWidth=2;rounded=0" parent="1" source="33" target="35" edge="1">
          <mxGeometry x="200" y="135.5" width="100" height="100" as="geometry">
            <mxPoint x="200" y="235.5" as="sourcePoint" />
            <mxPoint x="300" y="135.5" as="targetPoint" />
            <Array as="points">
              <mxPoint x="970" y="575.5" />
            </Array>
          </mxGeometry>
        </mxCell>
        <mxCell id="78" value="" style="edgeStyle=elbowEdgeStyle;elbow=horizontal;strokeWidth=2;rounded=0" parent="1" source="33" target="36" edge="1">
          <mxGeometry x="200" y="135.5" width="100" height="100" as="geometry">
            <mxPoint x="200" y="235.5" as="sourcePoint" />
            <mxPoint x="300" y="135.5" as="targetPoint" />
            <Array as="points">
              <mxPoint x="970" y="625.5" />
            </Array>
          </mxGeometry>
        </mxCell>
        <mxCell id="79" value="" style="edgeStyle=elbowEdgeStyle;elbow=horizontal;strokeWidth=2;rounded=0" parent="1" source="33" target="37" edge="1">
          <mxGeometry x="200" y="135.5" width="100" height="100" as="geometry">
            <mxPoint x="200" y="235.5" as="sourcePoint" />
            <mxPoint x="300" y="135.5" as="targetPoint" />
            <Array as="points">
              <mxPoint x="970" y="665.5" />
            </Array>
          </mxGeometry>
        </mxCell>
        <mxCell id="80" value="" style="edgeStyle=elbowEdgeStyle;elbow=horizontal;strokeWidth=2;rounded=0" parent="1" source="33" target="38" edge="1">
          <mxGeometry x="200" y="135.5" width="100" height="100" as="geometry">
            <mxPoint x="200" y="235.5" as="sourcePoint" />
            <mxPoint x="300" y="135.5" as="targetPoint" />
            <Array as="points">
              <mxPoint x="970" y="705.5" />
            </Array>
          </mxGeometry>
        </mxCell>
        <mxCell id="81" value="" style="edgeStyle=elbowEdgeStyle;elbow=horizontal;strokeWidth=2;rounded=0" parent="1" source="33" target="39" edge="1">
          <mxGeometry x="200" y="135.5" width="100" height="100" as="geometry">
            <mxPoint x="200" y="235.5" as="sourcePoint" />
            <mxPoint x="300" y="135.5" as="targetPoint" />
            <Array as="points">
              <mxPoint x="970" y="755.5" />
            </Array>
          </mxGeometry>
        </mxCell>
        <mxCell id="82" value="" style="edgeStyle=elbowEdgeStyle;elbow=horizontal;strokeWidth=2;rounded=0" parent="1" source="41" target="42" edge="1">
          <mxGeometry x="660" y="170" width="100" height="100" as="geometry">
            <mxPoint x="660" y="270" as="sourcePoint" />
            <mxPoint x="760" y="170" as="targetPoint" />
            <Array as="points">
              <mxPoint x="1640" y="570" />
            </Array>
          </mxGeometry>
        </mxCell>
        <mxCell id="83" value="" style="edgeStyle=elbowEdgeStyle;elbow=horizontal;strokeWidth=2;rounded=0" parent="1" source="41" target="43" edge="1">
          <mxGeometry x="660" y="170" width="100" height="100" as="geometry">
            <mxPoint x="660" y="270" as="sourcePoint" />
            <mxPoint x="760" y="170" as="targetPoint" />
            <Array as="points">
              <mxPoint x="1640" y="620" />
            </Array>
          </mxGeometry>
        </mxCell>
        <mxCell id="84" value="" style="edgeStyle=elbowEdgeStyle;elbow=horizontal;strokeWidth=2;rounded=0" parent="1" source="44" target="45" edge="1">
          <mxGeometry x="600" y="150" width="100" height="100" as="geometry">
            <mxPoint x="600" y="250" as="sourcePoint" />
            <mxPoint x="700" y="150" as="targetPoint" />
            <Array as="points">
              <mxPoint x="1820" y="560" />
            </Array>
          </mxGeometry>
        </mxCell>
        <mxCell id="85" value="" style="edgeStyle=elbowEdgeStyle;elbow=horizontal;strokeWidth=2;rounded=0" parent="1" source="44" target="46" edge="1">
          <mxGeometry x="600" y="150" width="100" height="100" as="geometry">
            <mxPoint x="600" y="250" as="sourcePoint" />
            <mxPoint x="700" y="150" as="targetPoint" />
            <Array as="points">
              <mxPoint x="1820" y="590" />
            </Array>
          </mxGeometry>
        </mxCell>
        <mxCell id="86" value="" style="edgeStyle=elbowEdgeStyle;elbow=horizontal;strokeWidth=2;rounded=0" parent="1" source="44" target="47" edge="1">
          <mxGeometry x="600" y="150" width="100" height="100" as="geometry">
            <mxPoint x="600" y="250" as="sourcePoint" />
            <mxPoint x="700" y="150" as="targetPoint" />
            <Array as="points">
              <mxPoint x="1820" y="640" />
            </Array>
          </mxGeometry>
        </mxCell>
        <mxCell id="87" value="" style="edgeStyle=elbowEdgeStyle;elbow=horizontal;strokeWidth=2;rounded=0" parent="1" source="48" target="49" edge="1">
          <mxGeometry x="600" y="150" width="100" height="100" as="geometry">
            <mxPoint x="600" y="250" as="sourcePoint" />
            <mxPoint x="700" y="150" as="targetPoint" />
            <Array as="points">
              <mxPoint x="1990" y="550" />
            </Array>
          </mxGeometry>
        </mxCell>
        <mxCell id="88" value="" style="edgeStyle=elbowEdgeStyle;elbow=horizontal;strokeWidth=2;rounded=0" parent="1" source="48" target="50" edge="1">
          <mxGeometry x="600" y="150" width="100" height="100" as="geometry">
            <mxPoint x="600" y="250" as="sourcePoint" />
            <mxPoint x="700" y="150" as="targetPoint" />
            <Array as="points">
              <mxPoint x="1990" y="610" />
            </Array>
          </mxGeometry>
        </mxCell>
        <mxCell id="89" value="" style="edgeStyle=elbowEdgeStyle;elbow=horizontal;strokeWidth=2;rounded=0" parent="1" source="48" target="51" edge="1">
          <mxGeometry x="600" y="150" width="100" height="100" as="geometry">
            <mxPoint x="600" y="250" as="sourcePoint" />
            <mxPoint x="700" y="150" as="targetPoint" />
            <Array as="points">
              <mxPoint x="1990" y="640" />
            </Array>
          </mxGeometry>
        </mxCell>
        <mxCell id="90" value="" style="edgeStyle=elbowEdgeStyle;elbow=horizontal;strokeWidth=2;rounded=0" parent="1" source="52" target="53" edge="1">
          <mxGeometry x="600" y="150" width="100" height="100" as="geometry">
            <mxPoint x="600" y="250" as="sourcePoint" />
            <mxPoint x="700" y="150" as="targetPoint" />
            <Array as="points">
              <mxPoint x="2170" y="550" />
            </Array>
          </mxGeometry>
        </mxCell>
        <mxCell id="91" value="" style="edgeStyle=elbowEdgeStyle;elbow=horizontal;strokeWidth=2;rounded=0" parent="1" source="52" target="54" edge="1">
          <mxGeometry x="600" y="150" width="100" height="100" as="geometry">
            <mxPoint x="600" y="250" as="sourcePoint" />
            <mxPoint x="700" y="150" as="targetPoint" />
            <Array as="points">
              <mxPoint x="2170" y="590" />
            </Array>
          </mxGeometry>
        </mxCell>
        <mxCell id="92" value="" style="edgeStyle=elbowEdgeStyle;elbow=horizontal;strokeWidth=2;rounded=0" parent="1" source="52" target="55" edge="1">
          <mxGeometry x="600" y="150" width="100" height="100" as="geometry">
            <mxPoint x="600" y="250" as="sourcePoint" />
            <mxPoint x="700" y="150" as="targetPoint" />
            <Array as="points">
              <mxPoint x="2170" y="640" />
            </Array>
          </mxGeometry>
        </mxCell>
        <mxCell id="93" value="" style="edgeStyle=elbowEdgeStyle;elbow=horizontal;strokeWidth=2;rounded=0" parent="1" source="52" target="56" edge="1">
          <mxGeometry x="600" y="150" width="100" height="100" as="geometry">
            <mxPoint x="600" y="250" as="sourcePoint" />
            <mxPoint x="700" y="150" as="targetPoint" />
            <Array as="points">
              <mxPoint x="2170" y="690" />
            </Array>
          </mxGeometry>
        </mxCell>
        <mxCell id="94" value="" style="edgeStyle=elbowEdgeStyle;elbow=horizontal;strokeWidth=2;rounded=0" parent="1" source="52" target="57" edge="1">
          <mxGeometry x="600" y="150" width="100" height="100" as="geometry">
            <mxPoint x="600" y="250" as="sourcePoint" />
            <mxPoint x="700" y="150" as="targetPoint" />
            <Array as="points">
              <mxPoint x="2170" y="740" />
            </Array>
          </mxGeometry>
        </mxCell>
        <mxCell id="95" value="" style="edgeStyle=elbowEdgeStyle;elbow=horizontal;strokeWidth=2;rounded=0" parent="1" source="52" target="58" edge="1">
          <mxGeometry x="600" y="150" width="100" height="100" as="geometry">
            <mxPoint x="600" y="250" as="sourcePoint" />
            <mxPoint x="700" y="150" as="targetPoint" />
            <Array as="points">
              <mxPoint x="2170" y="780" />
            </Array>
          </mxGeometry>
        </mxCell>
        <mxCell id="100" value="" style="edgeStyle=elbowEdgeStyle;elbow=vertical;strokeWidth=2;rounded=0" parent="1" source="12" target="25" edge="1">
          <mxGeometry x="-23" y="135.5" width="100" height="100" as="geometry">
            <mxPoint x="-23" y="235.5" as="sourcePoint" />
            <mxPoint x="77" y="135.5" as="targetPoint" />
          </mxGeometry>
        </mxCell>
        <mxCell id="101" value="" style="edgeStyle=elbowEdgeStyle;elbow=vertical;strokeWidth=2;rounded=0" parent="1" source="12" target="29" edge="1">
          <mxGeometry x="-23" y="135.5" width="100" height="100" as="geometry">
            <mxPoint x="-23" y="235.5" as="sourcePoint" />
            <mxPoint x="77" y="135.5" as="targetPoint" />
          </mxGeometry>
        </mxCell>
        <mxCell id="102" value="" style="edgeStyle=elbowEdgeStyle;elbow=vertical;strokeWidth=2;rounded=0" parent="1" source="12" target="33" edge="1">
          <mxGeometry x="-23" y="135.5" width="100" height="100" as="geometry">
            <mxPoint x="-23" y="235.5" as="sourcePoint" />
            <mxPoint x="77" y="135.5" as="targetPoint" />
          </mxGeometry>
        </mxCell>
        <mxCell id="103" value="" style="edgeStyle=elbowEdgeStyle;elbow=vertical;strokeWidth=2;rounded=0" parent="1" source="10" target="41" edge="1">
          <mxGeometry x="-23" y="135.5" width="100" height="100" as="geometry">
            <mxPoint x="-23" y="235.5" as="sourcePoint" />
            <mxPoint x="77" y="135.5" as="targetPoint" />
          </mxGeometry>
        </mxCell>
        <mxCell id="104" value="" style="edgeStyle=elbowEdgeStyle;elbow=vertical;strokeWidth=2;rounded=0" parent="1" source="4" target="48" edge="1">
          <mxGeometry x="-23" y="135.5" width="100" height="100" as="geometry">
            <mxPoint x="-23" y="235.5" as="sourcePoint" />
            <mxPoint x="77" y="135.5" as="targetPoint" />
          </mxGeometry>
        </mxCell>
        <mxCell id="105" value="" style="edgeStyle=elbowEdgeStyle;elbow=vertical;strokeWidth=2;rounded=0" parent="1" source="4" target="44" edge="1">
          <mxGeometry x="-23" y="135.5" width="100" height="100" as="geometry">
            <mxPoint x="-23" y="235.5" as="sourcePoint" />
            <mxPoint x="77" y="135.5" as="targetPoint" />
          </mxGeometry>
        </mxCell>
        <mxCell id="106" value="" style="edgeStyle=elbowEdgeStyle;elbow=vertical;strokeWidth=2;rounded=0" parent="1" source="4" target="52" edge="1">
          <mxGeometry x="-23" y="135.5" width="100" height="100" as="geometry">
            <mxPoint x="-23" y="235.5" as="sourcePoint" />
            <mxPoint x="77" y="135.5" as="targetPoint" />
          </mxGeometry>
        </mxCell>
        <mxCell id="LBzVhK5G867ArXUdgfji-123" value=".gitlab" style="rounded=1;fillColor=#23445D;gradientColor=none;strokeColor=none;fontColor=#FFFFFF;fontStyle=1;fontFamily=Tahoma;fontSize=14" vertex="1" parent="1">
          <mxGeometry x="2380" y="335.5" width="130" height="60" as="geometry" />
        </mxCell>
        <mxCell id="LBzVhK5G867ArXUdgfji-124" value="" style="edgeStyle=elbowEdgeStyle;elbow=vertical;strokeWidth=2;rounded=0;exitX=0.5;exitY=1;exitDx=0;exitDy=0;entryX=0.5;entryY=0;entryDx=0;entryDy=0;" edge="1" parent="1" source="2" target="10">
          <mxGeometry x="357" y="235.5" width="100" height="100" as="geometry">
            <mxPoint x="862" y="275.5" as="sourcePoint" />
            <mxPoint x="641" y="345.5" as="targetPoint" />
          </mxGeometry>
        </mxCell>
        <mxCell id="LBzVhK5G867ArXUdgfji-125" value="" style="edgeStyle=elbowEdgeStyle;elbow=vertical;strokeWidth=2;rounded=0" edge="1" parent="1" target="LBzVhK5G867ArXUdgfji-123">
          <mxGeometry x="335" y="215.5" width="100" height="100" as="geometry">
            <mxPoint x="850" y="265.5" as="sourcePoint" />
            <mxPoint x="1455" y="335.5" as="targetPoint" />
          </mxGeometry>
        </mxCell>
        <mxCell id="LBzVhK5G867ArXUdgfji-126" value="environments" style="rounded=1;fillColor=#23445D;gradientColor=none;strokeColor=none;fontColor=#FFFFFF;fontStyle=1;fontFamily=Tahoma;fontSize=14" vertex="1" parent="1">
          <mxGeometry x="1140" y="455.5" width="130" height="60" as="geometry" />
        </mxCell>
        <mxCell id="LBzVhK5G867ArXUdgfji-127" value="styles" style="rounded=1;fillColor=#23445D;gradientColor=none;strokeColor=none;fontColor=#FFFFFF;fontStyle=1;fontFamily=Tahoma;fontSize=14" vertex="1" parent="1">
          <mxGeometry x="1280" y="455.5" width="130" height="60" as="geometry" />
        </mxCell>
        <mxCell id="LBzVhK5G867ArXUdgfji-129" value="&lt;b&gt;&lt;font style=&quot;font-size: 14px&quot;&gt;index.html&lt;/font&gt;&lt;/b&gt;" style="rounded=0;whiteSpace=wrap;html=1;fillColor=#fff2cc;strokeColor=#d6b656;" vertex="1" parent="1">
          <mxGeometry x="1460" y="445.5" width="130" height="60" as="geometry" />
        </mxCell>
        <mxCell id="LBzVhK5G867ArXUdgfji-131" value="&lt;b&gt;&lt;font style=&quot;font-size: 14px&quot;&gt;main.ts&lt;/font&gt;&lt;/b&gt;" style="rounded=0;whiteSpace=wrap;html=1;fillColor=#dae8fc;strokeColor=#6c8ebf;" vertex="1" parent="1">
          <mxGeometry x="1460" y="530" width="130" height="60" as="geometry" />
        </mxCell>
        <mxCell id="LBzVhK5G867ArXUdgfji-132" value="&lt;b&gt;&lt;font style=&quot;font-size: 14px&quot;&gt;polyfills.ts&lt;/font&gt;&lt;/b&gt;" style="rounded=0;whiteSpace=wrap;html=1;fillColor=#dae8fc;strokeColor=#6c8ebf;" vertex="1" parent="1">
          <mxGeometry x="1460" y="600" width="130" height="60" as="geometry" />
        </mxCell>
        <mxCell id="LBzVhK5G867ArXUdgfji-133" value="&lt;b&gt;&lt;font style=&quot;font-size: 14px&quot;&gt;test.ts&lt;/font&gt;&lt;/b&gt;" style="rounded=0;whiteSpace=wrap;html=1;fillColor=#dae8fc;strokeColor=#6c8ebf;" vertex="1" parent="1">
          <mxGeometry x="1460" y="670" width="130" height="60" as="geometry" />
        </mxCell>
        <mxCell id="LBzVhK5G867ArXUdgfji-134" value="&lt;b&gt;&lt;font style=&quot;font-size: 14px&quot;&gt;tsconfig.app.json&lt;/font&gt;&lt;/b&gt;" style="rounded=0;whiteSpace=wrap;html=1;fillColor=#dae8fc;strokeColor=#6c8ebf;" vertex="1" parent="1">
          <mxGeometry x="1460" y="740" width="130" height="60" as="geometry" />
        </mxCell>
        <mxCell id="LBzVhK5G867ArXUdgfji-135" value="&lt;b&gt;&lt;font style=&quot;font-size: 14px&quot;&gt;tsconfig.spec.json&lt;/font&gt;&lt;/b&gt;" style="rounded=0;whiteSpace=wrap;html=1;fillColor=#f8cecc;strokeColor=#b85450;" vertex="1" parent="1">
          <mxGeometry x="1460" y="810" width="130" height="60" as="geometry" />
        </mxCell>
        <mxCell id="LBzVhK5G867ArXUdgfji-136" value="" style="edgeStyle=elbowEdgeStyle;elbow=vertical;strokeWidth=2;rounded=0;entryX=0.5;entryY=0;entryDx=0;entryDy=0;exitX=0.5;exitY=1;exitDx=0;exitDy=0;" edge="1" parent="1" source="12" target="LBzVhK5G867ArXUdgfji-126">
          <mxGeometry x="-20" y="135.5" width="100" height="100" as="geometry">
            <mxPoint x="630" y="395.5" as="sourcePoint" />
            <mxPoint x="835" y="455.5" as="targetPoint" />
          </mxGeometry>
        </mxCell>
        <mxCell id="LBzVhK5G867ArXUdgfji-137" value="" style="edgeStyle=elbowEdgeStyle;elbow=vertical;strokeWidth=2;rounded=0;entryX=0.5;entryY=0;entryDx=0;entryDy=0;" edge="1" parent="1" target="LBzVhK5G867ArXUdgfji-127">
          <mxGeometry x="-20" y="135.5" width="100" height="100" as="geometry">
            <mxPoint x="25" y="396" as="sourcePoint" />
            <mxPoint x="1055" y="455.5" as="targetPoint" />
          </mxGeometry>
        </mxCell>
        <mxCell id="LBzVhK5G867ArXUdgfji-138" value="" style="edgeStyle=elbowEdgeStyle;elbow=vertical;strokeWidth=2;rounded=0;endArrow=none;endFill=0;" edge="1" parent="1">
          <mxGeometry x="-20" y="135.5" width="100" height="100" as="geometry">
            <mxPoint x="25" y="400" as="sourcePoint" />
            <mxPoint x="1440" y="460" as="targetPoint" />
            <Array as="points">
              <mxPoint x="1000" y="423" />
            </Array>
          </mxGeometry>
        </mxCell>
        <mxCell id="LBzVhK5G867ArXUdgfji-140" value="" style="edgeStyle=elbowEdgeStyle;elbow=horizontal;strokeWidth=2;rounded=0" edge="1" parent="1">
          <mxGeometry x="670" y="120" width="100" height="100" as="geometry">
            <mxPoint x="1440" y="470" as="sourcePoint" />
            <mxPoint x="1460" y="560" as="targetPoint" />
            <Array as="points">
              <mxPoint x="1440" y="520" />
            </Array>
          </mxGeometry>
        </mxCell>
        <mxCell id="LBzVhK5G867ArXUdgfji-141" value="" style="edgeStyle=elbowEdgeStyle;elbow=horizontal;strokeWidth=2;rounded=0" edge="1" parent="1">
          <mxGeometry x="670" y="105.5" width="100" height="100" as="geometry">
            <mxPoint x="1440" y="455.5" as="sourcePoint" />
            <mxPoint x="1460" y="635.5" as="targetPoint" />
            <Array as="points">
              <mxPoint x="1440" y="545.5" />
            </Array>
          </mxGeometry>
        </mxCell>
        <mxCell id="LBzVhK5G867ArXUdgfji-142" value="" style="edgeStyle=elbowEdgeStyle;elbow=horizontal;strokeWidth=2;rounded=0" edge="1" parent="1">
          <mxGeometry x="670" y="150.5" width="100" height="100" as="geometry">
            <mxPoint x="1440" y="470.5" as="sourcePoint" />
            <mxPoint x="1460" y="770.5" as="targetPoint" />
            <Array as="points">
              <mxPoint x="1440" y="640.5" />
            </Array>
          </mxGeometry>
        </mxCell>
        <mxCell id="LBzVhK5G867ArXUdgfji-143" value="" style="edgeStyle=elbowEdgeStyle;elbow=horizontal;strokeWidth=2;rounded=0" edge="1" parent="1">
          <mxGeometry x="670" y="140" width="100" height="100" as="geometry">
            <mxPoint x="1440" y="460" as="sourcePoint" />
            <mxPoint x="1460" y="850" as="targetPoint" />
            <Array as="points">
              <mxPoint x="1440" y="670" />
            </Array>
          </mxGeometry>
        </mxCell>
        <mxCell id="LBzVhK5G867ArXUdgfji-150" value="" style="edgeStyle=elbowEdgeStyle;elbow=horizontal;strokeWidth=2;rounded=0" edge="1" parent="1">
          <mxGeometry x="670" y="75.5" width="100" height="100" as="geometry">
            <mxPoint x="1440" y="425.5" as="sourcePoint" />
            <mxPoint x="1460" y="480" as="targetPoint" />
            <Array as="points">
              <mxPoint x="1440" y="480" />
            </Array>
          </mxGeometry>
        </mxCell>
        <mxCell id="LBzVhK5G867ArXUdgfji-151" value="" style="edgeStyle=elbowEdgeStyle;elbow=horizontal;strokeWidth=2;rounded=0" edge="1" parent="1">
          <mxGeometry x="670" y="165.5" width="100" height="100" as="geometry">
            <mxPoint x="1440" y="515.5" as="sourcePoint" />
            <mxPoint x="1460" y="695.5" as="targetPoint" />
            <Array as="points">
              <mxPoint x="1440" y="605.5" />
            </Array>
          </mxGeometry>
        </mxCell>
        <mxCell id="LBzVhK5G867ArXUdgfji-152" value="" style="edgeStyle=elbowEdgeStyle;elbow=vertical;strokeWidth=2;rounded=0;exitX=0.692;exitY=1;exitDx=0;exitDy=0;exitPerimeter=0;entryX=0.75;entryY=0;entryDx=0;entryDy=0;" edge="1" parent="1" source="LBzVhK5G867ArXUdgfji-123" target="LBzVhK5G867ArXUdgfji-153">
          <mxGeometry x="202" y="135.5" width="100" height="100" as="geometry">
            <mxPoint x="2320" y="395.5" as="sourcePoint" />
            <mxPoint x="2430" y="470" as="targetPoint" />
          </mxGeometry>
        </mxCell>
        <mxCell id="LBzVhK5G867ArXUdgfji-153" value="&lt;b&gt;&lt;font style=&quot;font-size: 14px&quot;&gt;dependabot.yml&lt;/font&gt;&lt;/b&gt;" style="rounded=0;whiteSpace=wrap;html=1;fillColor=#e1d5e7;strokeColor=#9673a6;" vertex="1" parent="1">
          <mxGeometry x="2440" y="460" width="130" height="60" as="geometry" />
        </mxCell>
        <mxCell id="LBzVhK5G867ArXUdgfji-170" value="" style="edgeStyle=elbowEdgeStyle;elbow=horizontal;strokeWidth=2;rounded=0" edge="1" parent="1">
          <mxGeometry x="-995" y="135" width="100" height="100" as="geometry">
            <mxPoint x="-800" y="395.5" as="sourcePoint" />
            <mxPoint x="-830" y="469.5" as="targetPoint" />
            <Array as="points">
              <mxPoint x="-800" y="469.5" />
            </Array>
          </mxGeometry>
        </mxCell>
        <mxCell id="LBzVhK5G867ArXUdgfji-171" value="" style="edgeStyle=elbowEdgeStyle;elbow=horizontal;strokeWidth=2;rounded=0;exitX=1;exitY=0.5;exitDx=0;exitDy=0;" edge="1" parent="1" target="LBzVhK5G867ArXUdgfji-173" source="13">
          <mxGeometry x="-5" y="141" width="100" height="100" as="geometry">
            <mxPoint x="220" y="401" as="sourcePoint" />
            <mxPoint x="160" y="545.5" as="targetPoint" />
            <Array as="points">
              <mxPoint x="-800" y="450" />
            </Array>
          </mxGeometry>
        </mxCell>
        <mxCell id="LBzVhK5G867ArXUdgfji-172" value="&lt;span style=&quot;font-size: 14px&quot;&gt;&lt;b&gt;build-reference-url-configuration.ts&lt;/b&gt;&lt;/span&gt;" style="rounded=0;whiteSpace=wrap;html=1;fillColor=#dae8fc;strokeColor=#6c8ebf;" vertex="1" parent="1">
          <mxGeometry x="-960" y="435" width="130" height="60" as="geometry" />
        </mxCell>
        <mxCell id="LBzVhK5G867ArXUdgfji-173" value="&lt;b&gt;&lt;font style=&quot;font-size: 14px&quot;&gt;tsconfig.json&lt;/font&gt;&lt;/b&gt;" style="rounded=0;whiteSpace=wrap;html=1;fillColor=#dae8fc;strokeColor=#6c8ebf;" vertex="1" parent="1">
          <mxGeometry x="-960" y="505" width="130" height="60" as="geometry" />
        </mxCell>
        <mxCell id="LBzVhK5G867ArXUdgfji-174" value="" style="edgeStyle=elbowEdgeStyle;elbow=vertical;strokeWidth=2;rounded=0;endArrow=none;endFill=0;" edge="1" parent="1">
          <mxGeometry x="335" y="215.5" width="100" height="100" as="geometry">
            <mxPoint x="850" y="265.5" as="sourcePoint" />
            <mxPoint x="2600" y="336" as="targetPoint" />
          </mxGeometry>
        </mxCell>
        <mxCell id="LBzVhK5G867ArXUdgfji-175" value="&lt;b&gt;&lt;font style=&quot;font-size: 14px&quot;&gt;.browserlistrc&lt;/font&gt;&lt;/b&gt;" style="rounded=0;whiteSpace=wrap;html=1;" vertex="1" parent="1">
          <mxGeometry x="2620" y="335.5" width="130" height="60" as="geometry" />
        </mxCell>
        <mxCell id="LBzVhK5G867ArXUdgfji-176" value="" style="edgeStyle=elbowEdgeStyle;elbow=horizontal;strokeWidth=2;rounded=0" edge="1" parent="1">
          <mxGeometry x="1030" y="-75" width="100" height="100" as="geometry">
            <mxPoint x="2600" y="300" as="sourcePoint" />
            <mxPoint x="2620" y="365" as="targetPoint" />
            <Array as="points">
              <mxPoint x="2600" y="325" />
            </Array>
          </mxGeometry>
        </mxCell>
        <mxCell id="LBzVhK5G867ArXUdgfji-177" value="" style="edgeStyle=elbowEdgeStyle;elbow=horizontal;strokeWidth=2;rounded=0" edge="1" parent="1">
          <mxGeometry x="1030" y="-44.5" width="100" height="100" as="geometry">
            <mxPoint x="2600" y="300" as="sourcePoint" />
            <mxPoint x="2620" y="485.5" as="targetPoint" />
            <Array as="points">
              <mxPoint x="2600" y="395.5" />
            </Array>
          </mxGeometry>
        </mxCell>
        <mxCell id="LBzVhK5G867ArXUdgfji-178" value="" style="edgeStyle=elbowEdgeStyle;elbow=horizontal;strokeWidth=2;rounded=0" edge="1" parent="1">
          <mxGeometry x="1030" y="-44.5" width="100" height="100" as="geometry">
            <mxPoint x="2600" y="306" as="sourcePoint" />
            <mxPoint x="2620" y="575.5" as="targetPoint" />
            <Array as="points">
              <mxPoint x="2600" y="445.5" />
            </Array>
          </mxGeometry>
        </mxCell>
        <mxCell id="LBzVhK5G867ArXUdgfji-179" value="" style="edgeStyle=elbowEdgeStyle;elbow=horizontal;strokeWidth=2;rounded=0" edge="1" parent="1">
          <mxGeometry x="1030" y="-44.5" width="100" height="100" as="geometry">
            <mxPoint x="2600" y="306" as="sourcePoint" />
            <mxPoint x="2620" y="665.5" as="targetPoint" />
            <Array as="points">
              <mxPoint x="2600" y="495.5" />
            </Array>
          </mxGeometry>
        </mxCell>
        <mxCell id="LBzVhK5G867ArXUdgfji-180" value="" style="edgeStyle=elbowEdgeStyle;elbow=horizontal;strokeWidth=2;rounded=0" edge="1" parent="1">
          <mxGeometry x="1030" y="-44.5" width="100" height="100" as="geometry">
            <mxPoint x="2600" y="306" as="sourcePoint" />
            <mxPoint x="2620" y="755.5" as="targetPoint" />
            <Array as="points">
              <mxPoint x="2600" y="545.5" />
            </Array>
          </mxGeometry>
        </mxCell>
        <mxCell id="LBzVhK5G867ArXUdgfji-181" value="" style="edgeStyle=elbowEdgeStyle;elbow=horizontal;strokeWidth=2;rounded=0" edge="1" parent="1">
          <mxGeometry x="1030" y="-44.5" width="100" height="100" as="geometry">
            <mxPoint x="2600" y="300" as="sourcePoint" />
            <mxPoint x="2620" y="845.5" as="targetPoint" />
            <Array as="points">
              <mxPoint x="2600" y="585.5" />
            </Array>
          </mxGeometry>
        </mxCell>
        <mxCell id="LBzVhK5G867ArXUdgfji-182" value="&lt;b&gt;&lt;font style=&quot;font-size: 14px&quot;&gt;.editorgconfig&lt;/font&gt;&lt;/b&gt;" style="rounded=0;whiteSpace=wrap;html=1;" vertex="1" parent="1">
          <mxGeometry x="2620" y="450" width="130" height="60" as="geometry" />
        </mxCell>
        <mxCell id="LBzVhK5G867ArXUdgfji-183" value="&lt;b&gt;&lt;font style=&quot;font-size: 14px&quot;&gt;.eslintignore&lt;/font&gt;&lt;/b&gt;" style="rounded=0;whiteSpace=wrap;html=1;" vertex="1" parent="1">
          <mxGeometry x="2620" y="545.5" width="130" height="60" as="geometry" />
        </mxCell>
        <mxCell id="LBzVhK5G867ArXUdgfji-184" value="&lt;b&gt;&lt;font style=&quot;font-size: 14px&quot;&gt;.eslintrc.js&lt;/font&gt;&lt;/b&gt;" style="rounded=0;whiteSpace=wrap;html=1;" vertex="1" parent="1">
          <mxGeometry x="2620" y="635.5" width="130" height="60" as="geometry" />
        </mxCell>
        <mxCell id="LBzVhK5G867ArXUdgfji-185" value="&lt;b&gt;&lt;font style=&quot;font-size: 14px&quot;&gt;.gitattributes&lt;/font&gt;&lt;/b&gt;" style="rounded=0;whiteSpace=wrap;html=1;" vertex="1" parent="1">
          <mxGeometry x="2620" y="730" width="130" height="60" as="geometry" />
        </mxCell>
        <mxCell id="LBzVhK5G867ArXUdgfji-186" value="&lt;b&gt;&lt;font style=&quot;font-size: 14px&quot;&gt;.gitignore&lt;/font&gt;&lt;/b&gt;" style="rounded=0;whiteSpace=wrap;html=1;" vertex="1" parent="1">
          <mxGeometry x="2620" y="817" width="130" height="60" as="geometry" />
        </mxCell>
        <mxCell id="LBzVhK5G867ArXUdgfji-187" value="&lt;b&gt;&lt;font style=&quot;font-size: 14px&quot;&gt;.gitlab-ci.yml&lt;/font&gt;&lt;/b&gt;" style="rounded=0;whiteSpace=wrap;html=1;fillColor=#e1d5e7;strokeColor=#9673a6;" vertex="1" parent="1">
          <mxGeometry x="2620" y="890" width="130" height="60" as="geometry" />
        </mxCell>
        <mxCell id="LBzVhK5G867ArXUdgfji-188" value="&lt;b&gt;&lt;font style=&quot;font-size: 14px&quot;&gt;.npmrc&lt;/font&gt;&lt;/b&gt;" style="rounded=0;whiteSpace=wrap;html=1;" vertex="1" parent="1">
          <mxGeometry x="2620" y="970" width="130" height="60" as="geometry" />
        </mxCell>
        <mxCell id="LBzVhK5G867ArXUdgfji-189" value="&lt;b&gt;&lt;font style=&quot;font-size: 14px&quot;&gt;.prettierrc.json&lt;/font&gt;&lt;/b&gt;" style="rounded=0;whiteSpace=wrap;html=1;" vertex="1" parent="1">
          <mxGeometry x="2620" y="1050" width="130" height="60" as="geometry" />
        </mxCell>
        <mxCell id="LBzVhK5G867ArXUdgfji-190" value="&lt;b&gt;&lt;font style=&quot;font-size: 14px&quot;&gt;.stylelintrc.js&lt;/font&gt;&lt;/b&gt;" style="rounded=0;whiteSpace=wrap;html=1;" vertex="1" parent="1">
          <mxGeometry x="2620" y="1130" width="130" height="60" as="geometry" />
        </mxCell>
        <mxCell id="LBzVhK5G867ArXUdgfji-191" value="&lt;b&gt;&lt;font style=&quot;font-size: 14px&quot;&gt;Dockerfile&lt;/font&gt;&lt;/b&gt;" style="rounded=0;whiteSpace=wrap;html=1;" vertex="1" parent="1">
          <mxGeometry x="2620" y="1210" width="130" height="60" as="geometry" />
        </mxCell>
        <mxCell id="LBzVhK5G867ArXUdgfji-192" value="&lt;b&gt;&lt;font style=&quot;font-size: 14px&quot;&gt;README.md&lt;/font&gt;&lt;/b&gt;" style="rounded=0;whiteSpace=wrap;html=1;" vertex="1" parent="1">
          <mxGeometry x="2620" y="1280" width="130" height="60" as="geometry" />
        </mxCell>
        <mxCell id="LBzVhK5G867ArXUdgfji-193" value="&lt;b&gt;&lt;font style=&quot;font-size: 14px&quot;&gt;angular.json&lt;/font&gt;&lt;/b&gt;" style="rounded=0;whiteSpace=wrap;html=1;" vertex="1" parent="1">
          <mxGeometry x="2620" y="1350" width="130" height="60" as="geometry" />
        </mxCell>
        <mxCell id="LBzVhK5G867ArXUdgfji-194" value="&lt;b&gt;&lt;font style=&quot;font-size: 14px&quot;&gt;build.sh&lt;/font&gt;&lt;/b&gt;" style="rounded=0;whiteSpace=wrap;html=1;" vertex="1" parent="1">
          <mxGeometry x="2620" y="1420" width="130" height="60" as="geometry" />
        </mxCell>
        <mxCell id="LBzVhK5G867ArXUdgfji-195" value="&lt;b&gt;&lt;font style=&quot;font-size: 14px&quot;&gt;cypress.json&lt;/font&gt;&lt;/b&gt;" style="rounded=0;whiteSpace=wrap;html=1;" vertex="1" parent="1">
          <mxGeometry x="2620" y="1500" width="130" height="60" as="geometry" />
        </mxCell>
        <mxCell id="LBzVhK5G867ArXUdgfji-196" value="&lt;b&gt;&lt;font style=&quot;font-size: 14px&quot;&gt;healtz.json&lt;/font&gt;&lt;/b&gt;" style="rounded=0;whiteSpace=wrap;html=1;" vertex="1" parent="1">
          <mxGeometry x="2620" y="1580" width="130" height="60" as="geometry" />
        </mxCell>
        <mxCell id="LBzVhK5G867ArXUdgfji-197" value="&lt;b&gt;&lt;font style=&quot;font-size: 14px&quot;&gt;karma.conf.js&lt;/font&gt;&lt;/b&gt;" style="rounded=0;whiteSpace=wrap;html=1;" vertex="1" parent="1">
          <mxGeometry x="2620" y="1650" width="130" height="60" as="geometry" />
        </mxCell>
        <mxCell id="LBzVhK5G867ArXUdgfji-198" value="&lt;b&gt;&lt;font style=&quot;font-size: 14px&quot;&gt;package-lock.json&lt;/font&gt;&lt;/b&gt;" style="rounded=0;whiteSpace=wrap;html=1;" vertex="1" parent="1">
          <mxGeometry x="2620" y="1730" width="130" height="60" as="geometry" />
        </mxCell>
        <mxCell id="LBzVhK5G867ArXUdgfji-199" value="&lt;b&gt;&lt;font style=&quot;font-size: 14px&quot;&gt;package.json&lt;/font&gt;&lt;/b&gt;" style="rounded=0;whiteSpace=wrap;html=1;" vertex="1" parent="1">
          <mxGeometry x="2620" y="1800" width="130" height="60" as="geometry" />
        </mxCell>
        <mxCell id="LBzVhK5G867ArXUdgfji-200" value="&lt;b&gt;&lt;font style=&quot;font-size: 14px&quot;&gt;proxy.conf.js&lt;/font&gt;&lt;/b&gt;" style="rounded=0;whiteSpace=wrap;html=1;" vertex="1" parent="1">
          <mxGeometry x="2620" y="1880" width="130" height="60" as="geometry" />
        </mxCell>
        <mxCell id="LBzVhK5G867ArXUdgfji-201" value="&lt;b&gt;&lt;font style=&quot;font-size: 14px&quot;&gt;sonar-scanner&lt;/font&gt;&lt;/b&gt;" style="rounded=0;whiteSpace=wrap;html=1;" vertex="1" parent="1">
          <mxGeometry x="2620" y="1960" width="130" height="60" as="geometry" />
        </mxCell>
        <mxCell id="LBzVhK5G867ArXUdgfji-202" value="&lt;b&gt;&lt;font style=&quot;font-size: 14px&quot;&gt;tag.sh&lt;/font&gt;&lt;/b&gt;" style="rounded=0;whiteSpace=wrap;html=1;" vertex="1" parent="1">
          <mxGeometry x="2620" y="2030" width="130" height="60" as="geometry" />
        </mxCell>
        <mxCell id="LBzVhK5G867ArXUdgfji-203" value="&lt;b&gt;&lt;font style=&quot;font-size: 14px&quot;&gt;tsconfig.json&lt;/font&gt;&lt;/b&gt;" style="rounded=0;whiteSpace=wrap;html=1;" vertex="1" parent="1">
          <mxGeometry x="2620" y="2100" width="130" height="60" as="geometry" />
        </mxCell>
        <mxCell id="LBzVhK5G867ArXUdgfji-204" value="" style="edgeStyle=elbowEdgeStyle;elbow=horizontal;strokeWidth=2;rounded=0" edge="1" parent="1">
          <mxGeometry x="1030" y="1225.5" width="100" height="100" as="geometry">
            <mxPoint x="2600" y="823.199951171875" as="sourcePoint" />
            <mxPoint x="2620" y="2115.5" as="targetPoint" />
            <Array as="points">
              <mxPoint x="2600" y="1855.5" />
            </Array>
          </mxGeometry>
        </mxCell>
        <mxCell id="LBzVhK5G867ArXUdgfji-205" value="" style="edgeStyle=elbowEdgeStyle;elbow=horizontal;strokeWidth=2;rounded=0" edge="1" parent="1">
          <mxGeometry x="1030" y="1165.5" width="100" height="100" as="geometry">
            <mxPoint x="2600" y="1510" as="sourcePoint" />
            <mxPoint x="2620" y="2055.5" as="targetPoint" />
            <Array as="points">
              <mxPoint x="2600" y="1795.5" />
            </Array>
          </mxGeometry>
        </mxCell>
        <mxCell id="LBzVhK5G867ArXUdgfji-206" value="" style="edgeStyle=elbowEdgeStyle;elbow=horizontal;strokeWidth=2;rounded=0" edge="1" parent="1">
          <mxGeometry x="1030" y="635.5" width="100" height="100" as="geometry">
            <mxPoint x="2600" y="1394.5" as="sourcePoint" />
            <mxPoint x="2620" y="1525.5" as="targetPoint" />
            <Array as="points">
              <mxPoint x="2600" y="1265.5" />
            </Array>
          </mxGeometry>
        </mxCell>
        <mxCell id="LBzVhK5G867ArXUdgfji-207" value="" style="edgeStyle=elbowEdgeStyle;elbow=horizontal;strokeWidth=2;rounded=0" edge="1" parent="1">
          <mxGeometry x="1030" y="731" width="100" height="100" as="geometry">
            <mxPoint x="2600" y="1490" as="sourcePoint" />
            <mxPoint x="2620" y="1621" as="targetPoint" />
            <Array as="points">
              <mxPoint x="2600" y="1361" />
            </Array>
          </mxGeometry>
        </mxCell>
        <mxCell id="LBzVhK5G867ArXUdgfji-208" value="" style="edgeStyle=elbowEdgeStyle;elbow=horizontal;strokeWidth=2;rounded=0" edge="1" parent="1">
          <mxGeometry x="1030" y="791" width="100" height="100" as="geometry">
            <mxPoint x="2600" y="1550" as="sourcePoint" />
            <mxPoint x="2620" y="1681" as="targetPoint" />
            <Array as="points">
              <mxPoint x="2600" y="1421" />
            </Array>
          </mxGeometry>
        </mxCell>
        <mxCell id="LBzVhK5G867ArXUdgfji-209" value="" style="edgeStyle=elbowEdgeStyle;elbow=horizontal;strokeWidth=2;rounded=0" edge="1" parent="1">
          <mxGeometry x="1030" y="571" width="100" height="100" as="geometry">
            <mxPoint x="2600" y="1330" as="sourcePoint" />
            <mxPoint x="2620" y="1461" as="targetPoint" />
            <Array as="points">
              <mxPoint x="2600" y="1201" />
            </Array>
          </mxGeometry>
        </mxCell>
        <mxCell id="LBzVhK5G867ArXUdgfji-210" value="" style="edgeStyle=elbowEdgeStyle;elbow=horizontal;strokeWidth=2;rounded=0" edge="1" parent="1">
          <mxGeometry x="1030" y="881" width="100" height="100" as="geometry">
            <mxPoint x="2600" y="1640" as="sourcePoint" />
            <mxPoint x="2620" y="1771" as="targetPoint" />
            <Array as="points">
              <mxPoint x="2600" y="1511" />
            </Array>
          </mxGeometry>
        </mxCell>
        <mxCell id="LBzVhK5G867ArXUdgfji-211" value="" style="edgeStyle=elbowEdgeStyle;elbow=horizontal;strokeWidth=2;rounded=0" edge="1" parent="1">
          <mxGeometry x="1030" y="951" width="100" height="100" as="geometry">
            <mxPoint x="2600" y="1710" as="sourcePoint" />
            <mxPoint x="2620" y="1841" as="targetPoint" />
            <Array as="points">
              <mxPoint x="2600" y="1581" />
            </Array>
          </mxGeometry>
        </mxCell>
        <mxCell id="LBzVhK5G867ArXUdgfji-212" value="" style="edgeStyle=elbowEdgeStyle;elbow=horizontal;strokeWidth=2;rounded=0" edge="1" parent="1">
          <mxGeometry x="1030" y="1011" width="100" height="100" as="geometry">
            <mxPoint x="2600" y="1770" as="sourcePoint" />
            <mxPoint x="2620" y="1901" as="targetPoint" />
            <Array as="points">
              <mxPoint x="2600" y="1641" />
            </Array>
          </mxGeometry>
        </mxCell>
        <mxCell id="LBzVhK5G867ArXUdgfji-213" value="" style="edgeStyle=elbowEdgeStyle;elbow=horizontal;strokeWidth=2;rounded=0" edge="1" parent="1">
          <mxGeometry x="1030" y="1101" width="100" height="100" as="geometry">
            <mxPoint x="2600" y="1860" as="sourcePoint" />
            <mxPoint x="2620" y="1991" as="targetPoint" />
            <Array as="points">
              <mxPoint x="2600" y="1731" />
            </Array>
          </mxGeometry>
        </mxCell>
        <mxCell id="LBzVhK5G867ArXUdgfji-214" value="" style="edgeStyle=elbowEdgeStyle;elbow=horizontal;strokeWidth=2;rounded=0" edge="1" parent="1">
          <mxGeometry x="1030" y="501" width="100" height="100" as="geometry">
            <mxPoint x="2600" y="1260" as="sourcePoint" />
            <mxPoint x="2620" y="1391" as="targetPoint" />
            <Array as="points">
              <mxPoint x="2600" y="1131" />
            </Array>
          </mxGeometry>
        </mxCell>
        <mxCell id="LBzVhK5G867ArXUdgfji-215" value="" style="edgeStyle=elbowEdgeStyle;elbow=horizontal;strokeWidth=2;rounded=0" edge="1" parent="1">
          <mxGeometry x="1030" y="275.5" width="100" height="100" as="geometry">
            <mxPoint x="2600" y="1034.5" as="sourcePoint" />
            <mxPoint x="2620" y="1165.5" as="targetPoint" />
            <Array as="points">
              <mxPoint x="2600" y="905.5" />
            </Array>
          </mxGeometry>
        </mxCell>
        <mxCell id="LBzVhK5G867ArXUdgfji-216" value="" style="edgeStyle=elbowEdgeStyle;elbow=horizontal;strokeWidth=2;rounded=0" edge="1" parent="1">
          <mxGeometry x="1030" y="365.5" width="100" height="100" as="geometry">
            <mxPoint x="2600" y="1124.5" as="sourcePoint" />
            <mxPoint x="2620" y="1255.5" as="targetPoint" />
            <Array as="points">
              <mxPoint x="2600" y="995.5" />
            </Array>
          </mxGeometry>
        </mxCell>
        <mxCell id="LBzVhK5G867ArXUdgfji-217" value="" style="edgeStyle=elbowEdgeStyle;elbow=horizontal;strokeWidth=2;rounded=0" edge="1" parent="1">
          <mxGeometry x="1030" y="431" width="100" height="100" as="geometry">
            <mxPoint x="2600" y="1190" as="sourcePoint" />
            <mxPoint x="2620" y="1321" as="targetPoint" />
            <Array as="points">
              <mxPoint x="2600" y="1061" />
            </Array>
          </mxGeometry>
        </mxCell>
        <mxCell id="LBzVhK5G867ArXUdgfji-218" value="" style="edgeStyle=elbowEdgeStyle;elbow=horizontal;strokeWidth=2;rounded=0" edge="1" parent="1">
          <mxGeometry x="1030" y="201" width="100" height="100" as="geometry">
            <mxPoint x="2600" y="960" as="sourcePoint" />
            <mxPoint x="2620" y="1091" as="targetPoint" />
            <Array as="points">
              <mxPoint x="2600" y="831" />
            </Array>
          </mxGeometry>
        </mxCell>
        <mxCell id="LBzVhK5G867ArXUdgfji-219" value="" style="edgeStyle=elbowEdgeStyle;elbow=horizontal;strokeWidth=2;rounded=0" edge="1" parent="1">
          <mxGeometry x="1030" y="111" width="100" height="100" as="geometry">
            <mxPoint x="2600" y="870" as="sourcePoint" />
            <mxPoint x="2620" y="1001" as="targetPoint" />
            <Array as="points">
              <mxPoint x="2600" y="741" />
            </Array>
          </mxGeometry>
        </mxCell>
        <mxCell id="LBzVhK5G867ArXUdgfji-220" value="" style="edgeStyle=elbowEdgeStyle;elbow=horizontal;strokeWidth=2;rounded=0" edge="1" parent="1">
          <mxGeometry x="1030" y="41" width="100" height="100" as="geometry">
            <mxPoint x="2600" y="800" as="sourcePoint" />
            <mxPoint x="2620" y="931" as="targetPoint" />
            <Array as="points">
              <mxPoint x="2600" y="671" />
            </Array>
          </mxGeometry>
        </mxCell>
        <mxCell id="LBzVhK5G867ArXUdgfji-221" value="&lt;b&gt;&lt;font style=&quot;font-size: 14px&quot;&gt;index.d.ts&lt;/font&gt;&lt;/b&gt;" style="rounded=0;whiteSpace=wrap;html=1;fillColor=#dae8fc;strokeColor=#6c8ebf;" vertex="1" parent="1">
          <mxGeometry x="-740" y="550" width="130" height="60" as="geometry" />
        </mxCell>
        <mxCell id="LBzVhK5G867ArXUdgfji-222" value="enums" style="rounded=1;fillColor=#23445D;gradientColor=none;strokeColor=none;fontColor=#FFFFFF;fontStyle=1;fontFamily=Tahoma;fontSize=14" vertex="1" parent="1">
          <mxGeometry x="10" y="550" width="130" height="60" as="geometry" />
        </mxCell>
        <mxCell id="LBzVhK5G867ArXUdgfji-223" value="interfaces" style="rounded=1;fillColor=#23445D;gradientColor=none;strokeColor=none;fontColor=#FFFFFF;fontStyle=1;fontFamily=Tahoma;fontSize=14" vertex="1" parent="1">
          <mxGeometry x="160" y="550" width="130" height="60" as="geometry" />
        </mxCell>
        <mxCell id="LBzVhK5G867ArXUdgfji-224" value="modules" style="rounded=1;fillColor=#23445D;gradientColor=none;strokeColor=none;fontColor=#FFFFFF;fontStyle=1;fontFamily=Tahoma;fontSize=14" vertex="1" parent="1">
          <mxGeometry x="300" y="550" width="130" height="60" as="geometry" />
        </mxCell>
        <mxCell id="LBzVhK5G867ArXUdgfji-225" value="shared" style="rounded=1;fillColor=#23445D;gradientColor=none;strokeColor=none;fontColor=#FFFFFF;fontStyle=1;fontFamily=Tahoma;fontSize=14" vertex="1" parent="1">
          <mxGeometry x="440" y="550" width="130" height="60" as="geometry" />
        </mxCell>
        <mxCell id="LBzVhK5G867ArXUdgfji-226" value="utils" style="rounded=1;fillColor=#23445D;gradientColor=none;strokeColor=none;fontColor=#FFFFFF;fontStyle=1;fontFamily=Tahoma;fontSize=14" vertex="1" parent="1">
          <mxGeometry x="587" y="550" width="130" height="60" as="geometry" />
        </mxCell>
        <mxCell id="LBzVhK5G867ArXUdgfji-227" value="&lt;b&gt;&lt;font style=&quot;font-size: 14px&quot;&gt;app.component.html&lt;/font&gt;&lt;/b&gt;" style="rounded=0;whiteSpace=wrap;html=1;fillColor=#fff2cc;strokeColor=#d6b656;" vertex="1" parent="1">
          <mxGeometry x="747" y="620" width="150" height="60" as="geometry" />
        </mxCell>
        <mxCell id="LBzVhK5G867ArXUdgfji-228" value="&lt;b&gt;&lt;font style=&quot;font-size: 14px&quot;&gt;app.component.ts&lt;/font&gt;&lt;/b&gt;" style="rounded=0;whiteSpace=wrap;html=1;fillColor=#dae8fc;strokeColor=#6c8ebf;" vertex="1" parent="1">
          <mxGeometry x="748.5" y="695.5" width="130" height="60" as="geometry" />
        </mxCell>
        <mxCell id="LBzVhK5G867ArXUdgfji-230" value="&lt;b&gt;&lt;font style=&quot;font-size: 14px&quot;&gt;app.module.ts&lt;/font&gt;&lt;/b&gt;" style="rounded=0;whiteSpace=wrap;html=1;fillColor=#dae8fc;strokeColor=#6c8ebf;" vertex="1" parent="1">
          <mxGeometry x="750" y="770" width="130" height="60" as="geometry" />
        </mxCell>
        <mxCell id="LBzVhK5G867ArXUdgfji-231" value="&lt;b&gt;&lt;font style=&quot;font-size: 14px&quot;&gt;app-breadcrumbs-data.ts&lt;/font&gt;&lt;/b&gt;" style="rounded=0;whiteSpace=wrap;html=1;fillColor=#dae8fc;strokeColor=#6c8ebf;" vertex="1" parent="1">
          <mxGeometry x="748.5" y="550" width="130" height="60" as="geometry" />
        </mxCell>
        <mxCell id="LBzVhK5G867ArXUdgfji-232" value="&lt;b&gt;&lt;font style=&quot;font-size: 14px&quot;&gt;app-routing.module.ts&lt;/font&gt;&lt;/b&gt;" style="rounded=0;whiteSpace=wrap;html=1;fillColor=#dae8fc;strokeColor=#6c8ebf;" vertex="1" parent="1">
          <mxGeometry x="747" y="845.5" width="133" height="60" as="geometry" />
        </mxCell>
        <mxCell id="LBzVhK5G867ArXUdgfji-233" value="" style="edgeStyle=elbowEdgeStyle;elbow=vertical;strokeWidth=2;rounded=0;entryX=0.5;entryY=0;entryDx=0;entryDy=0;" edge="1" parent="1" target="30">
          <mxGeometry x="-328" y="255.5" width="100" height="100" as="geometry">
            <mxPoint x="-280" y="515.5" as="sourcePoint" />
            <mxPoint x="-585" y="575.5" as="targetPoint" />
            <Array as="points">
              <mxPoint x="-430" y="530" />
            </Array>
          </mxGeometry>
        </mxCell>
        <mxCell id="LBzVhK5G867ArXUdgfji-234" value="" style="edgeStyle=elbowEdgeStyle;elbow=vertical;strokeWidth=2;rounded=0;entryX=0.25;entryY=0;entryDx=0;entryDy=0;" edge="1" parent="1" target="31">
          <mxGeometry x="-328" y="255.5" width="100" height="100" as="geometry">
            <mxPoint x="-280" y="515.5" as="sourcePoint" />
            <mxPoint x="-505" y="550" as="targetPoint" />
            <Array as="points">
              <mxPoint x="-430" y="530" />
            </Array>
          </mxGeometry>
        </mxCell>
        <mxCell id="LBzVhK5G867ArXUdgfji-235" value="" style="edgeStyle=elbowEdgeStyle;elbow=vertical;strokeWidth=2;rounded=0;entryX=0.5;entryY=0;entryDx=0;entryDy=0;exitX=0.5;exitY=1;exitDx=0;exitDy=0;" edge="1" parent="1" source="29" target="32">
          <mxGeometry x="-318" y="265.5" width="100" height="100" as="geometry">
            <mxPoint x="-270" y="525.5" as="sourcePoint" />
            <mxPoint x="-367.5" y="560" as="targetPoint" />
            <Array as="points">
              <mxPoint x="-240" y="530" />
            </Array>
          </mxGeometry>
        </mxCell>
        <mxCell id="LBzVhK5G867ArXUdgfji-237" value="" style="edgeStyle=elbowEdgeStyle;elbow=vertical;strokeWidth=2;rounded=0;entryX=0.5;entryY=0;entryDx=0;entryDy=0;exitX=0.5;exitY=1;exitDx=0;exitDy=0;" edge="1" parent="1" target="LBzVhK5G867ArXUdgfji-222">
          <mxGeometry x="-318" y="265.5" width="100" height="100" as="geometry">
            <mxPoint x="-280" y="515.5" as="sourcePoint" />
            <mxPoint x="-195" y="550" as="targetPoint" />
            <Array as="points">
              <mxPoint x="-240" y="530" />
            </Array>
          </mxGeometry>
        </mxCell>
        <mxCell id="LBzVhK5G867ArXUdgfji-238" value="" style="edgeStyle=elbowEdgeStyle;elbow=vertical;strokeWidth=2;rounded=0;entryX=0.5;entryY=0;entryDx=0;entryDy=0;exitX=0.5;exitY=1;exitDx=0;exitDy=0;" edge="1" parent="1" target="LBzVhK5G867ArXUdgfji-223">
          <mxGeometry x="-318" y="265.5" width="100" height="100" as="geometry">
            <mxPoint x="-280" y="515.5" as="sourcePoint" />
            <mxPoint x="-55" y="550" as="targetPoint" />
            <Array as="points">
              <mxPoint x="-240" y="530" />
            </Array>
          </mxGeometry>
        </mxCell>
        <mxCell id="LBzVhK5G867ArXUdgfji-239" value="" style="edgeStyle=elbowEdgeStyle;elbow=vertical;strokeWidth=2;rounded=0;entryX=0.5;entryY=0;entryDx=0;entryDy=0;exitX=0.5;exitY=1;exitDx=0;exitDy=0;" edge="1" parent="1" target="LBzVhK5G867ArXUdgfji-224">
          <mxGeometry x="-318" y="265.5" width="100" height="100" as="geometry">
            <mxPoint x="-280" y="515.5" as="sourcePoint" />
            <mxPoint x="85" y="550" as="targetPoint" />
            <Array as="points">
              <mxPoint x="-240" y="530" />
            </Array>
          </mxGeometry>
        </mxCell>
        <mxCell id="LBzVhK5G867ArXUdgfji-241" value="" style="edgeStyle=elbowEdgeStyle;elbow=vertical;strokeWidth=2;rounded=0;entryX=0.5;entryY=0;entryDx=0;entryDy=0;exitX=0.5;exitY=1;exitDx=0;exitDy=0;" edge="1" parent="1" target="LBzVhK5G867ArXUdgfji-225">
          <mxGeometry x="-318" y="265.5" width="100" height="100" as="geometry">
            <mxPoint x="-280" y="515.5" as="sourcePoint" />
            <mxPoint x="225" y="550" as="targetPoint" />
            <Array as="points">
              <mxPoint x="-240" y="530" />
            </Array>
          </mxGeometry>
        </mxCell>
        <mxCell id="LBzVhK5G867ArXUdgfji-242" value="" style="edgeStyle=elbowEdgeStyle;elbow=vertical;strokeWidth=2;rounded=0;entryX=0.5;entryY=0;entryDx=0;entryDy=0;exitX=0.5;exitY=1;exitDx=0;exitDy=0;" edge="1" parent="1" target="LBzVhK5G867ArXUdgfji-226">
          <mxGeometry x="-318" y="265.5" width="100" height="100" as="geometry">
            <mxPoint x="-280" y="515.5" as="sourcePoint" />
            <mxPoint x="365" y="550" as="targetPoint" />
            <Array as="points">
              <mxPoint x="-240" y="530" />
            </Array>
          </mxGeometry>
        </mxCell>
        <mxCell id="LBzVhK5G867ArXUdgfji-244" value="" style="edgeStyle=elbowEdgeStyle;elbow=vertical;strokeWidth=2;rounded=0;exitX=0.5;exitY=1;exitDx=0;exitDy=0;endArrow=none;endFill=0;" edge="1" parent="1">
          <mxGeometry x="-318" y="265.5" width="100" height="100" as="geometry">
            <mxPoint x="-280" y="515.5" as="sourcePoint" />
            <mxPoint x="660" y="530" as="targetPoint" />
            <Array as="points">
              <mxPoint x="-240" y="530" />
              <mxPoint x="640" y="820" />
            </Array>
          </mxGeometry>
        </mxCell>
        <mxCell id="LBzVhK5G867ArXUdgfji-245" value="" style="edgeStyle=elbowEdgeStyle;elbow=horizontal;strokeWidth=2;rounded=0;entryX=0;entryY=0.5;entryDx=0;entryDy=0;" edge="1" parent="1" target="LBzVhK5G867ArXUdgfji-232">
          <mxGeometry x="-130" y="130" width="100" height="100" as="geometry">
            <mxPoint x="640" y="530" as="sourcePoint" />
            <mxPoint x="660" y="1020" as="targetPoint" />
            <Array as="points">
              <mxPoint x="730" y="700" />
            </Array>
          </mxGeometry>
        </mxCell>
        <mxCell id="LBzVhK5G867ArXUdgfji-246" value="" style="edgeStyle=elbowEdgeStyle;elbow=horizontal;strokeWidth=2;rounded=0;entryX=-0.026;entryY=0.661;entryDx=0;entryDy=0;entryPerimeter=0;" edge="1" parent="1" target="LBzVhK5G867ArXUdgfji-230">
          <mxGeometry x="-130" y="64.5" width="100" height="100" as="geometry">
            <mxPoint x="640" y="530" as="sourcePoint" />
            <mxPoint x="678.5" y="810" as="targetPoint" />
            <Array as="points">
              <mxPoint x="730" y="670" />
            </Array>
          </mxGeometry>
        </mxCell>
        <mxCell id="LBzVhK5G867ArXUdgfji-247" value="" style="edgeStyle=elbowEdgeStyle;elbow=horizontal;strokeWidth=2;rounded=0;entryX=0;entryY=0.5;entryDx=0;entryDy=0;" edge="1" parent="1">
          <mxGeometry x="-60" y="-25.5" width="100" height="100" as="geometry">
            <mxPoint x="710" y="530" as="sourcePoint" />
            <mxPoint x="748.5" y="720" as="targetPoint" />
            <Array as="points">
              <mxPoint x="730" y="580" />
            </Array>
          </mxGeometry>
        </mxCell>
        <mxCell id="LBzVhK5G867ArXUdgfji-248" value="" style="edgeStyle=elbowEdgeStyle;elbow=horizontal;strokeWidth=2;rounded=0;entryX=0;entryY=0.5;entryDx=0;entryDy=0;" edge="1" parent="1">
          <mxGeometry x="-60" y="-95.5" width="100" height="100" as="geometry">
            <mxPoint x="710" y="530" as="sourcePoint" />
            <mxPoint x="748.5" y="650" as="targetPoint" />
            <Array as="points">
              <mxPoint x="730" y="510" />
            </Array>
          </mxGeometry>
        </mxCell>
        <mxCell id="LBzVhK5G867ArXUdgfji-249" value="" style="edgeStyle=elbowEdgeStyle;elbow=horizontal;strokeWidth=2;rounded=0;" edge="1" parent="1">
          <mxGeometry x="-59" y="-155.5" width="100" height="100" as="geometry">
            <mxPoint x="711" y="530" as="sourcePoint" />
            <mxPoint x="750" y="570" as="targetPoint" />
            <Array as="points">
              <mxPoint x="731" y="450" />
            </Array>
          </mxGeometry>
        </mxCell>
        <mxCell id="LBzVhK5G867ArXUdgfji-250" value="layout" style="rounded=1;fillColor=#23445D;gradientColor=none;strokeColor=none;fontColor=#FFFFFF;fontStyle=1;fontFamily=Tahoma;fontSize=14" vertex="1" parent="1">
          <mxGeometry x="-570" y="620" width="130" height="50" as="geometry" />
        </mxCell>
        <mxCell id="LBzVhK5G867ArXUdgfji-251" value="out-going-&#xa;navigation" style="rounded=1;fillColor=#23445D;gradientColor=none;strokeColor=none;fontColor=#FFFFFF;fontStyle=1;fontFamily=Tahoma;fontSize=14" vertex="1" parent="1">
          <mxGeometry x="-570" y="780" width="130" height="50" as="geometry" />
        </mxCell>
        <mxCell id="LBzVhK5G867ArXUdgfji-252" value="" style="edgeStyle=elbowEdgeStyle;elbow=horizontal;strokeWidth=2;rounded=0;" edge="1" parent="1">
          <mxGeometry x="-813" y="220.5" width="100" height="100" as="geometry">
            <mxPoint x="-580" y="580" as="sourcePoint" />
            <mxPoint x="-570" y="650" as="targetPoint" />
            <Array as="points">
              <mxPoint x="-600" y="610" />
            </Array>
          </mxGeometry>
        </mxCell>
        <mxCell id="LBzVhK5G867ArXUdgfji-253" value="" style="edgeStyle=elbowEdgeStyle;elbow=horizontal;strokeWidth=2;rounded=0;entryX=0;entryY=0.5;entryDx=0;entryDy=0;exitX=0;exitY=0.5;exitDx=0;exitDy=0;" edge="1" parent="1" source="30" target="LBzVhK5G867ArXUdgfji-251">
          <mxGeometry x="-813" y="346" width="100" height="100" as="geometry">
            <mxPoint x="-570" y="570" as="sourcePoint" />
            <mxPoint x="-560" y="825.5" as="targetPoint" />
            <Array as="points">
              <mxPoint x="-600" y="690" />
            </Array>
          </mxGeometry>
        </mxCell>
        <mxCell id="LBzVhK5G867ArXUdgfji-255" value="&lt;b&gt;&lt;font style=&quot;font-size: 14px&quot;&gt;layout.component (ts, html, scss)&lt;/font&gt;&lt;/b&gt;&lt;b&gt;&lt;font style=&quot;font-size: 14px&quot;&gt;&lt;br&gt;&lt;/font&gt;&lt;/b&gt;" style="rounded=0;whiteSpace=wrap;html=1;fillColor=#d5e8d4;strokeColor=#82b366;" vertex="1" parent="1">
          <mxGeometry x="-560" y="695.5" width="130" height="60" as="geometry" />
        </mxCell>
        <mxCell id="LBzVhK5G867ArXUdgfji-258" value="&lt;b&gt;&lt;font style=&quot;font-size: 14px&quot;&gt;out-going-navigation.&lt;br&gt;component (ts, html, scss, spec.ts)&lt;/font&gt;&lt;/b&gt;&lt;b&gt;&lt;font style=&quot;font-size: 14px&quot;&gt;&lt;br&gt;&lt;/font&gt;&lt;/b&gt;" style="rounded=0;whiteSpace=wrap;html=1;fillColor=#d5e8d4;strokeColor=#0000FF;" vertex="1" parent="1">
          <mxGeometry x="-560" y="860" width="120" height="86" as="geometry" />
        </mxCell>
        <mxCell id="LBzVhK5G867ArXUdgfji-261" value="&lt;b&gt;&lt;font style=&quot;font-size: 14px&quot;&gt;app-configuration.ts&lt;br&gt;&lt;/font&gt;&lt;/b&gt;" style="rounded=0;whiteSpace=wrap;html=1;fillColor=#d5e8d4;strokeColor=#82b366;" vertex="1" parent="1">
          <mxGeometry x="-390" y="620" width="140" height="40" as="geometry" />
        </mxCell>
        <mxCell id="LBzVhK5G867ArXUdgfji-262" value="&lt;b&gt;&lt;font style=&quot;font-size: 14px&quot;&gt;menu-items.config.ts&lt;br&gt;&lt;/font&gt;&lt;/b&gt;" style="rounded=0;whiteSpace=wrap;html=1;fillColor=#d5e8d4;strokeColor=#82b366;" vertex="1" parent="1">
          <mxGeometry x="-390" y="680" width="140" height="40" as="geometry" />
        </mxCell>
        <mxCell id="LBzVhK5G867ArXUdgfji-263" value="&lt;b&gt;&lt;font style=&quot;font-size: 14px&quot;&gt;ngb-modal.options.ts&lt;br&gt;&lt;/font&gt;&lt;/b&gt;" style="rounded=0;whiteSpace=wrap;html=1;fillColor=#d5e8d4;strokeColor=#82b366;" vertex="1" parent="1">
          <mxGeometry x="-390" y="735.5" width="140" height="40" as="geometry" />
        </mxCell>
        <mxCell id="LBzVhK5G867ArXUdgfji-264" value="&lt;b&gt;&lt;font style=&quot;font-size: 14px&quot;&gt;overlay-config.ts&lt;br&gt;&lt;/font&gt;&lt;/b&gt;" style="rounded=0;whiteSpace=wrap;html=1;fillColor=#d5e8d4;strokeColor=#82b366;" vertex="1" parent="1">
          <mxGeometry x="-390" y="790" width="140" height="40" as="geometry" />
        </mxCell>
        <mxCell id="LBzVhK5G867ArXUdgfji-265" value="&lt;b&gt;&lt;font style=&quot;font-size: 14px&quot;&gt;path-separator.ts&lt;br&gt;&lt;/font&gt;&lt;/b&gt;" style="rounded=0;whiteSpace=wrap;html=1;fillColor=#d5e8d4;strokeColor=#82b366;" vertex="1" parent="1">
          <mxGeometry x="-390" y="845.5" width="140" height="40" as="geometry" />
        </mxCell>
        <mxCell id="LBzVhK5G867ArXUdgfji-266" value="&lt;b&gt;&lt;font style=&quot;font-size: 14px&quot;&gt;system-messages.ts&lt;br&gt;&lt;/font&gt;&lt;/b&gt;" style="rounded=0;whiteSpace=wrap;html=1;fillColor=#d5e8d4;strokeColor=#82b366;" vertex="1" parent="1">
          <mxGeometry x="-390" y="900" width="140" height="40" as="geometry" />
        </mxCell>
        <mxCell id="LBzVhK5G867ArXUdgfji-267" value="&lt;b&gt;&lt;font style=&quot;font-size: 14px&quot;&gt;validation-messages.ts&lt;br&gt;&lt;/font&gt;&lt;/b&gt;" style="rounded=0;whiteSpace=wrap;html=1;fillColor=#d5e8d4;strokeColor=#82b366;" vertex="1" parent="1">
          <mxGeometry x="-390" y="955.5" width="140" height="40" as="geometry" />
        </mxCell>
        <mxCell id="LBzVhK5G867ArXUdgfji-268" value="&lt;b&gt;&lt;font style=&quot;font-size: 14px&quot;&gt;validation-patterns.ts&lt;br&gt;&lt;/font&gt;&lt;/b&gt;" style="rounded=0;whiteSpace=wrap;html=1;fillColor=#d5e8d4;strokeColor=#82b366;" vertex="1" parent="1">
          <mxGeometry x="-390" y="1010" width="140" height="40" as="geometry" />
        </mxCell>
        <mxCell id="LBzVhK5G867ArXUdgfji-269" value="" style="edgeStyle=elbowEdgeStyle;elbow=horizontal;strokeWidth=2;rounded=0;exitX=0;exitY=0.5;exitDx=0;exitDy=0;" edge="1" parent="1">
          <mxGeometry x="-643" y="346" width="100" height="100" as="geometry">
            <mxPoint x="-400" y="580" as="sourcePoint" />
            <mxPoint x="-390" y="1030" as="targetPoint" />
            <Array as="points">
              <mxPoint x="-420" y="690" />
            </Array>
          </mxGeometry>
        </mxCell>
        <mxCell id="LBzVhK5G867ArXUdgfji-271" value="" style="edgeStyle=elbowEdgeStyle;elbow=horizontal;strokeWidth=2;rounded=0;exitX=1;exitY=0.5;exitDx=0;exitDy=0;entryX=1;entryY=0.344;entryDx=0;entryDy=0;entryPerimeter=0;" edge="1" parent="1">
          <mxGeometry x="215" y="855.5" width="100" height="100" as="geometry">
            <mxPoint x="-610" y="1080" as="sourcePoint" />
            <mxPoint x="-610" y="1152.26" as="targetPoint" />
            <Array as="points">
              <mxPoint x="-580" y="1164.5" />
            </Array>
          </mxGeometry>
        </mxCell>
        <mxCell id="LBzVhK5G867ArXUdgfji-272" value="" style="endArrow=classic;html=1;rounded=0;fontSize=14;entryX=0.431;entryY=0.025;entryDx=0;entryDy=0;entryPerimeter=0;strokeWidth=2;" edge="1" parent="1">
          <mxGeometry width="50" height="50" relative="1" as="geometry">
            <mxPoint x="-505.42" y="830" as="sourcePoint" />
            <mxPoint x="-505.39000000000027" y="857" as="targetPoint" />
          </mxGeometry>
        </mxCell>
        <mxCell id="LBzVhK5G867ArXUdgfji-274" value="" style="edgeStyle=elbowEdgeStyle;elbow=horizontal;strokeWidth=2;rounded=0;exitX=0;exitY=0.5;exitDx=0;exitDy=0;" edge="1" parent="1" source="31">
          <mxGeometry x="-643" y="296" width="100" height="100" as="geometry">
            <mxPoint x="-400" y="530" as="sourcePoint" />
            <mxPoint x="-390" y="980" as="targetPoint" />
            <Array as="points">
              <mxPoint x="-420" y="640" />
            </Array>
          </mxGeometry>
        </mxCell>
        <mxCell id="LBzVhK5G867ArXUdgfji-275" value="" style="edgeStyle=elbowEdgeStyle;elbow=horizontal;strokeWidth=2;rounded=0;" edge="1" parent="1">
          <mxGeometry x="-643" y="236" width="100" height="100" as="geometry">
            <mxPoint x="-400" y="580" as="sourcePoint" />
            <mxPoint x="-390" y="920" as="targetPoint" />
            <Array as="points">
              <mxPoint x="-420" y="580" />
            </Array>
          </mxGeometry>
        </mxCell>
        <mxCell id="LBzVhK5G867ArXUdgfji-276" value="" style="edgeStyle=elbowEdgeStyle;elbow=horizontal;strokeWidth=2;rounded=0;exitX=0;exitY=0.5;exitDx=0;exitDy=0;" edge="1" parent="1" source="31">
          <mxGeometry x="-643" y="181.5" width="100" height="100" as="geometry">
            <mxPoint x="-400" y="525.5" as="sourcePoint" />
            <mxPoint x="-390" y="865.5" as="targetPoint" />
            <Array as="points">
              <mxPoint x="-420" y="525.5" />
            </Array>
          </mxGeometry>
        </mxCell>
        <mxCell id="LBzVhK5G867ArXUdgfji-277" value="" style="edgeStyle=elbowEdgeStyle;elbow=horizontal;strokeWidth=2;rounded=0;exitX=0;exitY=0.5;exitDx=0;exitDy=0;" edge="1" parent="1" source="31">
          <mxGeometry x="-643" y="126" width="100" height="100" as="geometry">
            <mxPoint x="-410" y="580" as="sourcePoint" />
            <mxPoint x="-390" y="810" as="targetPoint" />
            <Array as="points">
              <mxPoint x="-420" y="470" />
            </Array>
          </mxGeometry>
        </mxCell>
        <mxCell id="LBzVhK5G867ArXUdgfji-278" value="" style="edgeStyle=elbowEdgeStyle;elbow=horizontal;strokeWidth=2;rounded=0;" edge="1" parent="1">
          <mxGeometry x="-643" y="71" width="100" height="100" as="geometry">
            <mxPoint x="-400" y="580" as="sourcePoint" />
            <mxPoint x="-390" y="755" as="targetPoint" />
            <Array as="points">
              <mxPoint x="-420" y="415" />
            </Array>
          </mxGeometry>
        </mxCell>
        <mxCell id="LBzVhK5G867ArXUdgfji-280" value="" style="edgeStyle=elbowEdgeStyle;elbow=horizontal;strokeWidth=2;rounded=0;exitX=0;exitY=0.5;exitDx=0;exitDy=0;" edge="1" parent="1" source="31">
          <mxGeometry x="-643" y="21" width="100" height="100" as="geometry">
            <mxPoint x="-400" y="530" as="sourcePoint" />
            <mxPoint x="-390" y="705" as="targetPoint" />
            <Array as="points">
              <mxPoint x="-420" y="365" />
            </Array>
          </mxGeometry>
        </mxCell>
        <mxCell id="LBzVhK5G867ArXUdgfji-281" value="" style="edgeStyle=elbowEdgeStyle;elbow=horizontal;strokeWidth=2;rounded=0;" edge="1" parent="1">
          <mxGeometry x="-643" y="-46" width="100" height="100" as="geometry">
            <mxPoint x="-400" y="580" as="sourcePoint" />
            <mxPoint x="-390" y="638" as="targetPoint" />
            <Array as="points">
              <mxPoint x="-420" y="298" />
            </Array>
          </mxGeometry>
        </mxCell>
        <mxCell id="LBzVhK5G867ArXUdgfji-282" value="" style="edgeStyle=elbowEdgeStyle;elbow=horizontal;strokeWidth=2;rounded=0;" edge="1" parent="1">
          <mxGeometry x="-463" y="-46" width="100" height="100" as="geometry">
            <mxPoint x="-220" y="580" as="sourcePoint" />
            <mxPoint x="-210" y="638" as="targetPoint" />
            <Array as="points">
              <mxPoint x="-240" y="298" />
            </Array>
          </mxGeometry>
        </mxCell>
        <mxCell id="LBzVhK5G867ArXUdgfji-283" value="" style="edgeStyle=elbowEdgeStyle;elbow=horizontal;strokeWidth=2;rounded=0;exitX=0;exitY=0.5;exitDx=0;exitDy=0;entryX=0;entryY=0.5;entryDx=0;entryDy=0;" edge="1" parent="1" source="32" target="LBzVhK5G867ArXUdgfji-290">
          <mxGeometry x="-463" y="111" width="100" height="100" as="geometry">
            <mxPoint x="-220" y="670" as="sourcePoint" />
            <mxPoint x="-210" y="795" as="targetPoint" />
            <Array as="points">
              <mxPoint x="-240" y="455" />
            </Array>
          </mxGeometry>
        </mxCell>
        <mxCell id="LBzVhK5G867ArXUdgfji-284" value="" style="edgeStyle=elbowEdgeStyle;elbow=horizontal;strokeWidth=2;rounded=0;entryX=0;entryY=0.5;entryDx=0;entryDy=0;" edge="1" parent="1" target="LBzVhK5G867ArXUdgfji-291">
          <mxGeometry x="-463" y="316" width="100" height="100" as="geometry">
            <mxPoint x="-220" y="579" as="sourcePoint" />
            <mxPoint x="-210" y="1000" as="targetPoint" />
            <Array as="points">
              <mxPoint x="-240" y="660" />
            </Array>
          </mxGeometry>
        </mxCell>
        <mxCell id="LBzVhK5G867ArXUdgfji-285" value="" style="edgeStyle=elbowEdgeStyle;elbow=horizontal;strokeWidth=2;rounded=0;exitX=0;exitY=0.5;exitDx=0;exitDy=0;entryX=-0.021;entryY=0.633;entryDx=0;entryDy=0;entryPerimeter=0;" edge="1" parent="1" target="LBzVhK5G867ArXUdgfji-292">
          <mxGeometry x="-463" y="126" width="100" height="100" as="geometry">
            <mxPoint x="-220" y="580" as="sourcePoint" />
            <mxPoint x="-210" y="1080" as="targetPoint" />
            <Array as="points">
              <mxPoint x="-240" y="470" />
            </Array>
          </mxGeometry>
        </mxCell>
        <mxCell id="LBzVhK5G867ArXUdgfji-286" value="" style="edgeStyle=elbowEdgeStyle;elbow=horizontal;strokeWidth=2;rounded=0;exitX=0;exitY=0.5;exitDx=0;exitDy=0;entryX=0;entryY=0.5;entryDx=0;entryDy=0;" edge="1" parent="1" target="LBzVhK5G867ArXUdgfji-293">
          <mxGeometry x="-463" y="181.5" width="100" height="100" as="geometry">
            <mxPoint x="-220" y="580" as="sourcePoint" />
            <mxPoint x="-210" y="1140" as="targetPoint" />
            <Array as="points">
              <mxPoint x="-240" y="525.5" />
            </Array>
          </mxGeometry>
        </mxCell>
        <mxCell id="LBzVhK5G867ArXUdgfji-287" value="" style="edgeStyle=elbowEdgeStyle;elbow=horizontal;strokeWidth=2;rounded=0;" edge="1" parent="1">
          <mxGeometry x="-463" y="236" width="100" height="100" as="geometry">
            <mxPoint x="-220" y="580" as="sourcePoint" />
            <mxPoint x="-220" y="1860" as="targetPoint" />
            <Array as="points">
              <mxPoint x="-240" y="580" />
            </Array>
          </mxGeometry>
        </mxCell>
        <mxCell id="LBzVhK5G867ArXUdgfji-288" value="" style="edgeStyle=elbowEdgeStyle;elbow=horizontal;strokeWidth=2;rounded=0;exitX=0;exitY=0.5;exitDx=0;exitDy=0;" edge="1" parent="1">
          <mxGeometry x="-463" y="296" width="100" height="100" as="geometry">
            <mxPoint x="-220" y="580" as="sourcePoint" />
            <mxPoint x="-220" y="1920" as="targetPoint" />
            <Array as="points">
              <mxPoint x="-240" y="640" />
            </Array>
          </mxGeometry>
        </mxCell>
        <mxCell id="LBzVhK5G867ArXUdgfji-289" value="guards" style="rounded=1;fillColor=#23445D;gradientColor=none;strokeColor=none;fontColor=#FFFFFF;fontStyle=1;fontFamily=Tahoma;fontSize=14" vertex="1" parent="1">
          <mxGeometry x="-210" y="620" width="130" height="50" as="geometry" />
        </mxCell>
        <mxCell id="LBzVhK5G867ArXUdgfji-290" value="interceptors" style="rounded=1;fillColor=#23445D;gradientColor=none;strokeColor=none;fontColor=#FFFFFF;fontStyle=1;fontFamily=Tahoma;fontSize=14" vertex="1" parent="1">
          <mxGeometry x="-210" y="750" width="130" height="50" as="geometry" />
        </mxCell>
        <mxCell id="LBzVhK5G867ArXUdgfji-291" value="services" style="rounded=1;fillColor=#23445D;gradientColor=none;strokeColor=none;fontColor=#FFFFFF;fontStyle=1;fontFamily=Tahoma;fontSize=14" vertex="1" parent="1">
          <mxGeometry x="-210" y="878" width="130" height="50" as="geometry" />
        </mxCell>
        <mxCell id="LBzVhK5G867ArXUdgfji-292" value="strategies" style="rounded=1;fillColor=#23445D;gradientColor=none;strokeColor=none;fontColor=#FFFFFF;fontStyle=1;fontFamily=Tahoma;fontSize=14" vertex="1" parent="1">
          <mxGeometry x="-210" y="1560" width="130" height="50" as="geometry" />
        </mxCell>
        <mxCell id="LBzVhK5G867ArXUdgfji-293" value="tokens" style="rounded=1;fillColor=#23445D;gradientColor=none;strokeColor=none;fontColor=#FFFFFF;fontStyle=1;fontFamily=Tahoma;fontSize=14" vertex="1" parent="1">
          <mxGeometry x="-210" y="1680" width="130" height="50" as="geometry" />
        </mxCell>
        <mxCell id="LBzVhK5G867ArXUdgfji-294" value="&lt;b&gt;&lt;font style=&quot;font-size: 14px&quot;&gt;core.module.ts&lt;/font&gt;&lt;/b&gt;" style="rounded=0;whiteSpace=wrap;html=1;fillColor=#dae8fc;strokeColor=#6c8ebf;" vertex="1" parent="1">
          <mxGeometry x="-215" y="1835" width="130" height="45" as="geometry" />
        </mxCell>
        <mxCell id="LBzVhK5G867ArXUdgfji-295" value="&lt;b&gt;&lt;font style=&quot;font-size: 14px&quot;&gt;default-error-state-matcher.ts&lt;/font&gt;&lt;/b&gt;" style="rounded=0;whiteSpace=wrap;html=1;fillColor=#dae8fc;strokeColor=#6c8ebf;" vertex="1" parent="1">
          <mxGeometry x="-215" y="1900" width="130" height="50" as="geometry" />
        </mxCell>
        <mxCell id="LBzVhK5G867ArXUdgfji-297" value="&lt;b&gt;&lt;font style=&quot;font-size: 14px&quot;&gt;leave-page-confirm.guard.ts&lt;/font&gt;&lt;/b&gt;&lt;b&gt;&lt;font style=&quot;font-size: 14px&quot;&gt;&lt;br&gt;&lt;/font&gt;&lt;/b&gt;" style="rounded=0;whiteSpace=wrap;html=1;fillColor=#d5e8d4;strokeColor=#0000FF;" vertex="1" parent="1">
          <mxGeometry x="-200" y="695.5" width="130" height="40" as="geometry" />
        </mxCell>
        <mxCell id="LBzVhK5G867ArXUdgfji-298" value="" style="endArrow=classic;html=1;rounded=0;fontSize=14;entryX=0.431;entryY=0.025;entryDx=0;entryDy=0;entryPerimeter=0;strokeWidth=2;exitX=0.5;exitY=1;exitDx=0;exitDy=0;" edge="1" parent="1">
          <mxGeometry width="50" height="50" relative="1" as="geometry">
            <mxPoint x="-160" y="670" as="sourcePoint" />
            <mxPoint x="-160" y="697" as="targetPoint" />
          </mxGeometry>
        </mxCell>
        <mxCell id="LBzVhK5G867ArXUdgfji-299" value="" style="endArrow=classic;html=1;rounded=0;fontSize=14;entryX=0.431;entryY=0.025;entryDx=0;entryDy=0;entryPerimeter=0;strokeWidth=2;exitX=0.5;exitY=1;exitDx=0;exitDy=0;" edge="1" parent="1">
          <mxGeometry width="50" height="50" relative="1" as="geometry">
            <mxPoint x="-505.42" y="670" as="sourcePoint" />
            <mxPoint x="-505.42" y="697" as="targetPoint" />
          </mxGeometry>
        </mxCell>
        <mxCell id="LBzVhK5G867ArXUdgfji-300" value="&lt;b&gt;&lt;font style=&quot;font-size: 14px&quot;&gt;http-validation.&lt;br&gt;interceptor.ts&lt;/font&gt;&lt;/b&gt;&lt;b&gt;&lt;font style=&quot;font-size: 14px&quot;&gt;&lt;br&gt;&lt;/font&gt;&lt;/b&gt;" style="rounded=0;whiteSpace=wrap;html=1;fillColor=#d5e8d4;strokeColor=#82B366;" vertex="1" parent="1">
          <mxGeometry x="-200" y="825.5" width="130" height="40" as="geometry" />
        </mxCell>
        <mxCell id="LBzVhK5G867ArXUdgfji-301" value="" style="endArrow=classic;html=1;rounded=0;fontSize=14;strokeWidth=2;exitX=0.5;exitY=1;exitDx=0;exitDy=0;" edge="1" parent="1">
          <mxGeometry width="50" height="50" relative="1" as="geometry">
            <mxPoint x="-160" y="800" as="sourcePoint" />
            <mxPoint x="-160" y="823" as="targetPoint" />
          </mxGeometry>
        </mxCell>
        <mxCell id="LBzVhK5G867ArXUdgfji-302" value="&lt;b&gt;&lt;font style=&quot;font-size: 14px&quot;&gt;add-icons.service.ts&lt;/font&gt;&lt;/b&gt;&lt;b&gt;&lt;font style=&quot;font-size: 14px&quot;&gt;&lt;br&gt;&lt;/font&gt;&lt;/b&gt;" style="rounded=0;whiteSpace=wrap;html=1;fillColor=#d5e8d4;strokeColor=#82B366;" vertex="1" parent="1">
          <mxGeometry x="-200" y="975.5" width="150" height="35" as="geometry" />
        </mxCell>
        <mxCell id="LBzVhK5G867ArXUdgfji-303" value="&lt;b&gt;&lt;font style=&quot;font-size: 14px&quot;&gt;env-variables.service.ts&lt;/font&gt;&lt;/b&gt;&lt;b&gt;&lt;font style=&quot;font-size: 14px&quot;&gt;&lt;br&gt;&lt;/font&gt;&lt;/b&gt;" style="rounded=0;whiteSpace=wrap;html=1;fillColor=#d5e8d4;strokeColor=#82B366;" vertex="1" parent="1">
          <mxGeometry x="-200" y="1015" width="170" height="35" as="geometry" />
        </mxCell>
        <mxCell id="LBzVhK5G867ArXUdgfji-304" value="&lt;b&gt;&lt;font style=&quot;font-size: 14px&quot;&gt;exposed-url.service.ts&lt;/font&gt;&lt;/b&gt;&lt;b&gt;&lt;font style=&quot;font-size: 14px&quot;&gt;&lt;br&gt;&lt;/font&gt;&lt;/b&gt;" style="rounded=0;whiteSpace=wrap;html=1;fillColor=#d5e8d4;strokeColor=#82B366;" vertex="1" parent="1">
          <mxGeometry x="-200" y="1055.5" width="170" height="35" as="geometry" />
        </mxCell>
        <mxCell id="LBzVhK5G867ArXUdgfji-305" value="&lt;span style=&quot;color: rgba(0 , 0 , 0 , 0) ; font-family: monospace ; font-size: 0px&quot;&gt;%3CmxGraphModel%3E%3Croot%3E%3CmxCell%20id%3D%220%22%2F%3E%3CmxCell%20id%3D%221%22%20parent%3D%220%22%2F%3E%3CmxCell%20id%3D%222%22%20value%3D%22%26lt%3Bb%26gt%3B%26lt%3Bfont%20style%3D%26quot%3Bfont-size%3A%2014px%26quot%3B%26gt%3Bexposed-url.service.ts%26lt%3B%2Ffont%26gt%3B%26lt%3B%2Fb%26gt%3B%26lt%3Bb%26gt%3B%26lt%3Bfont%20style%3D%26quot%3Bfont-size%3A%2014px%26quot%3B%26gt%3B%26lt%3Bbr%26gt%3B%26lt%3B%2Ffont%26gt%3B%26lt%3B%2Fb%26gt%3B%22%20style%3D%22rounded%3D0%3BwhiteSpace%3Dwrap%3Bhtml%3D1%3BfillColor%3D%23d5e8d4%3BstrokeColor%3D%2382B366%3B%22%20vertex%3D%221%22%20parent%3D%221%22%3E%3CmxGeometry%20x%3D%22-200%22%20y%3D%221055.5%22%20width%3D%22170%22%20height%3D%2235%22%20as%3D%22geometry%22%2F%3E%3C%2FmxCell%3E%3C%2Froot%3E%3C%2FmxGraphModel%3E&lt;/span&gt;&lt;font&gt;&lt;span style=&quot;font-size: 14px&quot;&gt;&lt;b&gt;finalize-navigation.&lt;/b&gt;&lt;/span&gt;&lt;span style=&quot;font-size: 14px&quot;&gt;&lt;b&gt;service.ts&lt;/b&gt;&lt;/span&gt;&lt;/font&gt;&lt;b&gt;&lt;font style=&quot;font-size: 14px&quot;&gt;&lt;br&gt;&lt;/font&gt;&lt;/b&gt;" style="rounded=0;whiteSpace=wrap;html=1;fillColor=#d5e8d4;strokeColor=#0000FF;" vertex="1" parent="1">
          <mxGeometry x="-200" y="1095" width="170" height="35" as="geometry" />
        </mxCell>
        <mxCell id="LBzVhK5G867ArXUdgfji-306" value="&lt;span style=&quot;color: rgba(0 , 0 , 0 , 0) ; font-family: monospace ; font-size: 0px&quot;&gt;%3CmxGraphModel%3E%3Croot%3E%3CmxCell%20id%3D%220%22%2F%3E%3CmxCell%20id%3D%221%22%20parent%3D%220%22%2F%3E%3CmxCell%20id%3D%222%22%20value%3D%22%26lt%3Bb%26gt%3B%26lt%3Bfont%20style%3D%26quot%3Bfont-size%3A%2014px%26quot%3B%26gt%3Bexposed-url.service.ts%26lt%3B%2Ffont%26gt%3B%26lt%3B%2Fb%26gt%3B%26lt%3Bb%26gt%3B%26lt%3Bfont%20style%3D%26quot%3Bfont-size%3A%2014px%26quot%3B%26gt%3B%26lt%3Bbr%26gt%3B%26lt%3B%2Ffont%26gt%3B%26lt%3B%2Fb%26gt%3B%22%20style%3D%22rounded%3D0%3BwhiteSpace%3Dwrap%3Bhtml%3D1%3BfillColor%3D%23d5e8d4%3BstrokeColor%3D%2382B366%3B%22%20vertex%3D%221%22%20parent%3D%221%22%3E%3CmxGeometry%20x%3D%22-200%22%20y%3D%221055.5%22%20width%3D%22170%22%20height%3D%2235%22%20as%3D%22geometry%22%2F%3E%3C%2FmxCell%3E%3C%2Froot%3E%3C%2FmxGraphModel%3E&lt;/span&gt;&lt;font&gt;&lt;span style=&quot;font-size: 14px&quot;&gt;&lt;b&gt;http-validation&lt;/b&gt;&lt;/span&gt;&lt;b style=&quot;font-size: 14px&quot;&gt;.&lt;/b&gt;&lt;span style=&quot;font-size: 14px&quot;&gt;&lt;b&gt;service.ts&lt;/b&gt;&lt;/span&gt;&lt;/font&gt;&lt;b&gt;&lt;font style=&quot;font-size: 14px&quot;&gt;&lt;br&gt;&lt;/font&gt;&lt;/b&gt;" style="rounded=0;whiteSpace=wrap;html=1;fillColor=#d5e8d4;strokeColor=#0000FF;" vertex="1" parent="1">
          <mxGeometry x="-200" y="1136" width="170" height="35" as="geometry" />
        </mxCell>
        <mxCell id="LBzVhK5G867ArXUdgfji-308" value="&lt;span style=&quot;color: rgba(0 , 0 , 0 , 0) ; font-family: monospace ; font-size: 0px&quot;&gt;%3CmxGraphModel%3E%3Croot%3E%3CmxCell%20id%3D%220%22%2F%3E%3CmxCell%20id%3D%221%22%20parent%3D%220%22%2F%3E%3CmxCell%20id%3D%222%22%20value%3D%22%26lt%3Bb%26gt%3B%26lt%3Bfont%20style%3D%26quot%3Bfont-size%3A%2014px%26quot%3B%26gt%3Bexposed-url.service.ts%26lt%3B%2Ffont%26gt%3B%26lt%3B%2Fb%26gt%3B%26lt%3Bb%26gt%3B%26lt%3Bfont%20style%3D%26quot%3Bfont-size%3A%2014px%26quot%3B%26gt%3B%26lt%3Bbr%26gt%3B%26lt%3B%2Ffont%26gt%3B%26lt%3B%2Fb%26gt%3B%22%20style%3D%22rounded%3D0%3BwhiteSpace%3Dwrap%3Bhtml%3D1%3BfillColor%3D%23d5e8d4%3BstrokeColor%3D%2382B366%3B%22%20vertex%3D%221%22%20parent%3D%221%22%3E%3CmxGeometry%20x%3D%22-200%22%20y%3D%221055.5%22%20width%3D%22170%22%20height%3D%2235%22%20as%3D%22geometry%22%2F%3E%3C%2FmxCell%3E%3C%2Froot%3E%3C%2FmxGraphModel%3E&lt;/span&gt;&lt;font&gt;&lt;span style=&quot;font-size: 14px&quot;&gt;&lt;b&gt;language-loader&lt;/b&gt;&lt;/span&gt;&lt;b style=&quot;font-size: 14px&quot;&gt;.&lt;/b&gt;&lt;span style=&quot;font-size: 14px&quot;&gt;&lt;b&gt;service.ts&lt;/b&gt;&lt;/span&gt;&lt;/font&gt;&lt;b&gt;&lt;font style=&quot;font-size: 14px&quot;&gt;&lt;br&gt;&lt;/font&gt;&lt;/b&gt;" style="rounded=0;whiteSpace=wrap;html=1;fillColor=#d5e8d4;strokeColor=#82B366;" vertex="1" parent="1">
          <mxGeometry x="-200" y="1177" width="170" height="35" as="geometry" />
        </mxCell>
        <mxCell id="LBzVhK5G867ArXUdgfji-309" value="&lt;span style=&quot;color: rgba(0 , 0 , 0 , 0) ; font-family: monospace ; font-size: 0px&quot;&gt;%3CmxGraphModel%3E%3Croot%3E%3CmxCell%20id%3D%220%22%2F%3E%3CmxCell%20id%3D%221%22%20parent%3D%220%22%2F%3E%3CmxCell%20id%3D%222%22%20value%3D%22%26lt%3Bb%26gt%3B%26lt%3Bfont%20style%3D%26quot%3Bfont-size%3A%2014px%26quot%3B%26gt%3Bexposed-url.service.ts%26lt%3B%2Ffont%26gt%3B%26lt%3B%2Fb%26gt%3B%26lt%3Bb%26gt%3B%26lt%3Bfont%20style%3D%26quot%3Bfont-size%3A%2014px%26quot%3B%26gt%3B%26lt%3Bbr%26gt%3B%26lt%3B%2Ffont%26gt%3B%26lt%3B%2Fb%26gt%3B%22%20style%3D%22rounded%3D0%3BwhiteSpace%3Dwrap%3Bhtml%3D1%3BfillColor%3D%23d5e8d4%3BstrokeColor%3D%2382B366%3B%22%20vertex%3D%221%22%20parent%3D%221%22%3E%3CmxGeometry%20x%3D%22-200%22%20y%3D%221055.5%22%20width%3D%22170%22%20height%3D%2235%22%20as%3D%22geometry%22%2F%3E%3C%2FmxCell%3E%3C%2Froot%3E%3C%2FmxGraphModel%3E&lt;/span&gt;&lt;font&gt;&lt;span style=&quot;font-size: 14px&quot;&gt;&lt;b&gt;markdown&lt;/b&gt;&lt;/span&gt;&lt;b style=&quot;font-size: 14px&quot;&gt;.&lt;/b&gt;&lt;span style=&quot;font-size: 14px&quot;&gt;&lt;b&gt;service.ts&lt;/b&gt;&lt;/span&gt;&lt;/font&gt;&lt;b&gt;&lt;font style=&quot;font-size: 14px&quot;&gt;&lt;br&gt;&lt;/font&gt;&lt;/b&gt;" style="rounded=0;whiteSpace=wrap;html=1;fillColor=#d5e8d4;strokeColor=#0000FF;" vertex="1" parent="1">
          <mxGeometry x="-200" y="1218" width="170" height="35" as="geometry" />
        </mxCell>
        <mxCell id="LBzVhK5G867ArXUdgfji-310" value="&lt;span style=&quot;color: rgba(0 , 0 , 0 , 0) ; font-family: monospace ; font-size: 0px&quot;&gt;%3CmxGraphModel%3E%3Croot%3E%3CmxCell%20id%3D%220%22%2F%3E%3CmxCell%20id%3D%221%22%20parent%3D%220%22%2F%3E%3CmxCell%20id%3D%222%22%20value%3D%22%26lt%3Bb%26gt%3B%26lt%3Bfont%20style%3D%26quot%3Bfont-size%3A%2014px%26quot%3B%26gt%3Bexposed-url.service.ts%26lt%3B%2Ffont%26gt%3B%26lt%3B%2Fb%26gt%3B%26lt%3Bb%26gt%3B%26lt%3Bfont%20style%3D%26quot%3Bfont-size%3A%2014px%26quot%3B%26gt%3B%26lt%3Bbr%26gt%3B%26lt%3B%2Ffont%26gt%3B%26lt%3B%2Fb%26gt%3B%22%20style%3D%22rounded%3D0%3BwhiteSpace%3Dwrap%3Bhtml%3D1%3BfillColor%3D%23d5e8d4%3BstrokeColor%3D%2382B366%3B%22%20vertex%3D%221%22%20parent%3D%221%22%3E%3CmxGeometry%20x%3D%22-200%22%20y%3D%221055.5%22%20width%3D%22170%22%20height%3D%2235%22%20as%3D%22geometry%22%2F%3E%3C%2FmxCell%3E%3C%2Froot%3E%3C%2FmxGraphModel%menu&lt;/span&gt;&lt;font&gt;&lt;b style=&quot;font-size: 14px&quot;&gt;menu.&lt;/b&gt;&lt;span style=&quot;font-size: 14px&quot;&gt;&lt;b&gt;service.ts&lt;/b&gt;&lt;/span&gt;&lt;/font&gt;&lt;b&gt;&lt;font style=&quot;font-size: 14px&quot;&gt;&lt;br&gt;&lt;/font&gt;&lt;/b&gt;" style="rounded=0;whiteSpace=wrap;html=1;fillColor=#d5e8d4;strokeColor=#82B366;" vertex="1" parent="1">
          <mxGeometry x="-200" y="1260" width="150" height="35" as="geometry" />
        </mxCell>
        <mxCell id="LBzVhK5G867ArXUdgfji-311" value="&lt;span style=&quot;color: rgba(0 , 0 , 0 , 0) ; font-family: monospace ; font-size: 0px&quot;&gt;3CmxGraphModel%3E%3Croot%3E%3CmxCell%20id%3D%220%22%2F%3E%3CmxCell%20id%3D%221%22%20parent%3D%220%22%2F%3E%3CmxCell%20id%3D%222%22%20value%3D%22%26lt%3Bb%26gt%3B%26lt%3Bfont%20style%3D%26quot%3Bfont-size%3A%2014px%26quot%3B%26gt%3Bexposed-url.service.ts%26lt%3B%2Ffont%26gt%3B%26lt%3B%2Fb%26gt%3B%26lt%3Bb%26gt%3B%26lt%3Bfont%20style%3D%26quot%3Bfont-size%3A%2014px%26quot%3B%26gt%3B%26lt%3Bbr%26gt%3B%26lt%3B%2Ffont%26gt%3B%26lt%3B%2Fb%26gt%3B%22%20style%3D%22rounded%3D0%3BwhiteSpace%3Dwrap%3Bhtml%3D1%3BfillColor%3D%23d5e8d4%3BstrokeColor%3D%2382B366%3B%22%20vertex%3D%221%22%20parent%3D%221%22%3E%3CmxGeometry%20x%3D%22-200%22%20y%3D%221055.5%22%20width%3D%22170%22%20height%3D%2235%22%20as%3D%22geometry%22%2F%3E%3C%2FmxCell%3E%3C%2Froot%3E%3C%2FmxGraphModel%navigator&lt;/span&gt;&lt;font&gt;&lt;b style=&quot;font-size: 14px&quot;&gt;navigator.&lt;/b&gt;&lt;span style=&quot;font-size: 14px&quot;&gt;&lt;b&gt;service.ts&lt;/b&gt;&lt;/span&gt;&lt;/font&gt;&lt;b&gt;&lt;font style=&quot;font-size: 14px&quot;&gt;&lt;br&gt;&lt;/font&gt;&lt;/b&gt;" style="rounded=0;whiteSpace=wrap;html=1;fillColor=#d5e8d4;strokeColor=#82B366;" vertex="1" parent="1">
          <mxGeometry x="-200" y="1302" width="150" height="35" as="geometry" />
        </mxCell>
        <mxCell id="LBzVhK5G867ArXUdgfji-312" value="&lt;span style=&quot;color: rgba(0 , 0 , 0 , 0) ; font-family: monospace ; font-size: 0px&quot;&gt;%3CmxGraphModel%3E%3Croot%3E%3CmxCell%20id%3D%220%22%2F%3E%3CmxCell%20id%3D%221%22%20parent%3D%220%22%2F%3E%3CmxCell%20id%3D%222%22%20value%3D%22%26lt%3Bb%26gt%3B%26lt%3Bfont%20style%3D%26quot%3Bfont-size%3A%2014px%26quot%3B%26gt%3Bexposed-url.service.ts%26lt%3B%2Ffont%26gt%3B%26lt%3B%2Fb%26gt%3B%26lt%3Bb%26gt%3B%26lt%3Bfont%20style%3D%26quot%3Bfont-size%3A%2014px%26quot%3B%26gt%3B%26lt%3Bbr%26gt%3B%26lt%3B%2Ffont%26gt%3B%26lt%3B%2Fb%26gt%3B%22%20style%3D%22rounded%3D0%3BwhiteSpace%3Dwrap%3Bhtml%3D1%3BfillColor%3D%23d5e8d4%3BstrokeColor%3D%2382B366%3B%22%20vertex%3D%221%22%20parent%3D%221%22%3E%3CmxGeometry%20x%3D%22-200%22%20y%3D%221055.5%22%20width%3D%22170%22%20height%3D%2235%22%20as%3D%22geometry%22%2F%3E%3C%2FmxCell%3E%3C%2Froot%3E%3C%2FmxGraphModel%3E&lt;/span&gt;&lt;font&gt;&lt;span style=&quot;font-size: 14px&quot;&gt;&lt;b&gt;orchestrated-engine-client.service.ts&lt;/b&gt;&lt;/span&gt;&lt;b style=&quot;font-size: 14px&quot;&gt;.&lt;/b&gt;&lt;/font&gt;&lt;b&gt;&lt;font style=&quot;font-size: 14px&quot;&gt;&lt;br&gt;&lt;/font&gt;&lt;/b&gt;" style="rounded=0;whiteSpace=wrap;html=1;fillColor=#d5e8d4;strokeColor=#82B366;" vertex="1" parent="1">
          <mxGeometry x="-200" y="1343" width="170" height="35" as="geometry" />
        </mxCell>
        <mxCell id="LBzVhK5G867ArXUdgfji-313" value="&lt;span style=&quot;color: rgba(0 , 0 , 0 , 0) ; font-family: monospace ; font-size: 0px&quot;&gt;%3CmxGraphModel%3E%3Croot%3E%3CmxCell%20id%3D%220%22%2F%3E%3CmxCell%20id%3D%221%22%20parent%3D%220%22%2F%3E%3CmxCell%20id%3D%222%22%20value%3D%22%26lt%3Bb%26gt%3B%26lt%3Bfont%20style%3D%26quot%3Bfont-size%3A%2014px%26quot%3B%26gt%3Bexposed-url.service.ts%26lt%3B%2Ffont%26gt%3B%26lt%3B%2Fb%26gt%3B%26lt%3Bb%26gt%3B%26lt%3Bfont%20style%3D%26quot%3Bfont-size%3A%2014px%26quot%3B%26gt%3B%26lt%3Bbr%26gt%3B%26lt%3B%2Ffont%26gt%3B%26lt%3B%2Fb%26gt%3B%22%20style%3D%22rounded%3D0%3BwhiteSpace%3Dwrap%3Bhtml%3D1%3BfillColor%3D%23d5e8d4%3BstrokeColor%3D%2382B366%3B%22%20vertex%3D%221%22%20parent%3D%221%22%3E%3CmxGeometry%20x%3D%22-200%22%20y%3D%221055.5%22%20width%3D%22170%22%20height%3D%2235%22%20as%3D%22geometry%22%2F%3E%3C%2FmxCell%3E%3C%2Froot%3E%3C%2FmxGraphModel%3E&lt;/span&gt;&lt;font&gt;&lt;span style=&quot;font-size: 14px&quot;&gt;&lt;b&gt;randomize&lt;/b&gt;&lt;/span&gt;&lt;b style=&quot;font-size: 14px&quot;&gt;.&lt;/b&gt;&lt;span style=&quot;font-size: 14px&quot;&gt;&lt;b&gt;service.ts&lt;/b&gt;&lt;/span&gt;&lt;/font&gt;&lt;b&gt;&lt;font style=&quot;font-size: 14px&quot;&gt;&lt;br&gt;&lt;/font&gt;&lt;/b&gt;" style="rounded=0;whiteSpace=wrap;html=1;fillColor=#d5e8d4;strokeColor=#82B366;" vertex="1" parent="1">
          <mxGeometry x="-200" y="1385" width="170" height="35" as="geometry" />
        </mxCell>
        <mxCell id="LBzVhK5G867ArXUdgfji-314" value="&lt;span style=&quot;color: rgba(0 , 0 , 0 , 0) ; font-family: monospace ; font-size: 0px&quot;&gt;%3CmxGraphModel%3E%3Croot%3E%3CmxCell%20id%3D%220%22%2F%3E%3CmxCell%20id%3D%221%22%20parent%3D%220%22%2F%3E%3CmxCell%20id%3D%222%22%20value%3D%22%26lt%3Bb%26gt%3B%26lt%3Bfont%20style%3D%26quot%3Bfont-size%3A%2014px%26quot%3B%26gt%3Bexposed-url.service.ts%26lt%3B%2Ffont%26gt%3B%26lt%3B%2Fb%26gt%3B%26lt%3Bb%26gt%3B%26lt%3Bfont%20style%3D%26quot%3Bfont-size%3A%2014px%26quot%3B%26gt%3B%26lt%3Bbr%26gt%3B%26lt%3B%2Ffont%26gt%3B%26lt%3B%2Fb%26gt%3B%22%20style%3D%22rounded%3D0%3BwhiteSpace%3Dwrap%3Bhtml%3D1%3BfillColor%3D%23d5e8d4%3BstrokeColor%3D%2382B366%3B%22%20vertex%3D%221%22%20parent%3D%221%22%3E%3CmxGeometry%20x%3D%22-200%22%20y%3D%221055.5%22%20width%3D%22170%22%20height%3D%2235%22%20as%3D%22geometry%22%2F%3E%3C%2FmxCell%3E%3C%2Froot%3E%3C%2FmxGraphModel%3E&lt;/span&gt;&lt;font&gt;&lt;span style=&quot;font-size: 14px&quot;&gt;&lt;b&gt;route-helper&lt;/b&gt;&lt;/span&gt;&lt;b style=&quot;font-size: 14px&quot;&gt;.&lt;/b&gt;&lt;span style=&quot;font-size: 14px&quot;&gt;&lt;b&gt;service.ts&lt;/b&gt;&lt;/span&gt;&lt;/font&gt;&lt;b&gt;&lt;font style=&quot;font-size: 14px&quot;&gt;&lt;br&gt;&lt;/font&gt;&lt;/b&gt;" style="rounded=0;whiteSpace=wrap;html=1;fillColor=#d5e8d4;strokeColor=#82B366;" vertex="1" parent="1">
          <mxGeometry x="-200" y="1427.5" width="170" height="35" as="geometry" />
        </mxCell>
        <mxCell id="LBzVhK5G867ArXUdgfji-315" value="&lt;span style=&quot;color: rgba(0 , 0 , 0 , 0) ; font-family: monospace ; font-size: 0px&quot;&gt;3CmxGraphModel%3E%3Croot%3E%3CmxCell%20id%3D%220%22%2F%3E%3CmxCell%20id%3D%221%22%20parent%3D%220%22%2F%3E%3CmxCell%20id%3D%222%22%20value%3D%22%26lt%3Bb%26gt%3B%26lt%3Bfont%20style%3D%26quot%3Bfont-size%3A%2014px%26quot%3B%26gt%3Bexposed-url.service.ts%26lt%3B%2Ffont%26gt%3B%26lt%3B%2Fb%26gt%3B%26lt%3Bb%26gt%3B%26lt%3Bfont%20style%3D%26quot%3Bfont-size%3A%2014px%26quot%3B%26gt%3B%26lt%3Bbr%26gt%3B%26lt%3B%2Ffont%26gt%3B%26lt%3B%2Fb%26gt%3B%22%20style%3D%22rounded%3D0%3BwhiteSpace%3Dwrap%3Bhtml%3D1%3BfillColor%3D%23d5e8d4%3BstrokeColor%3D%2382B366%3B%22%20vertex%3D%221%22%20parent%3D%221%22%3E%3CmxGeometry%20x%3D%22-200%22%20y%3D%221055.5%22%20width%3D%22170%22%20height%3D%2235%22%20as%3D%22geometry%22%2F%3E%3C%2FmxCell%3E%3C%2Froot%3E%3C%2FmxGraphModel%navigator&lt;/span&gt;&lt;font&gt;&lt;b style=&quot;font-size: 14px&quot;&gt;signalr.&lt;/b&gt;&lt;span style=&quot;font-size: 14px&quot;&gt;&lt;b&gt;service.ts&lt;/b&gt;&lt;/span&gt;&lt;/font&gt;&lt;b&gt;&lt;font style=&quot;font-size: 14px&quot;&gt;&lt;br&gt;&lt;/font&gt;&lt;/b&gt;" style="rounded=0;whiteSpace=wrap;html=1;fillColor=#d5e8d4;strokeColor=#82B366;" vertex="1" parent="1">
          <mxGeometry x="-200" y="1470" width="150" height="35" as="geometry" />
        </mxCell>
        <mxCell id="LBzVhK5G867ArXUdgfji-316" value="&lt;font&gt;&lt;font color=&quot;rgba(0, 0, 0, 0)&quot; face=&quot;monospace&quot;&gt;&lt;span style=&quot;font-size: 0px&quot;&gt;user-menu-info&lt;/span&gt;&lt;/font&gt;&lt;b style=&quot;font-size: 14px&quot;&gt;user-menu-info.&lt;/b&gt;&lt;span style=&quot;font-size: 14px&quot;&gt;&lt;b&gt;service.ts&lt;/b&gt;&lt;/span&gt;&lt;/font&gt;&lt;b&gt;&lt;font style=&quot;font-size: 14px&quot;&gt;&lt;br&gt;&lt;/font&gt;&lt;/b&gt;" style="rounded=0;whiteSpace=wrap;html=1;fillColor=#d5e8d4;strokeColor=#82B366;" vertex="1" parent="1">
          <mxGeometry x="-200" y="1512.5" width="175" height="35" as="geometry" />
        </mxCell>
        <mxCell id="LBzVhK5G867ArXUdgfji-317" value="" style="edgeStyle=elbowEdgeStyle;elbow=horizontal;strokeWidth=2;rounded=0;exitX=1;exitY=0.5;exitDx=0;exitDy=0;entryX=1;entryY=0.5;entryDx=0;entryDy=0;" edge="1" parent="1" source="LBzVhK5G867ArXUdgfji-291" target="LBzVhK5G867ArXUdgfji-302">
          <mxGeometry x="745" y="703.24" width="100" height="100" as="geometry">
            <mxPoint x="-80" y="930" as="sourcePoint" />
            <mxPoint x="-50" y="1000" as="targetPoint" />
            <Array as="points">
              <mxPoint x="-10" y="960" />
            </Array>
          </mxGeometry>
        </mxCell>
        <mxCell id="LBzVhK5G867ArXUdgfji-318" value="" style="edgeStyle=elbowEdgeStyle;elbow=horizontal;strokeWidth=2;rounded=0;exitX=1;exitY=0.5;exitDx=0;exitDy=0;" edge="1" parent="1" source="LBzVhK5G867ArXUdgfji-291" target="LBzVhK5G867ArXUdgfji-303">
          <mxGeometry x="745" y="700.24" width="100" height="100" as="geometry">
            <mxPoint x="-80" y="930" as="sourcePoint" />
            <mxPoint x="-50" y="990" as="targetPoint" />
            <Array as="points">
              <mxPoint x="-10" y="957" />
            </Array>
          </mxGeometry>
        </mxCell>
        <mxCell id="LBzVhK5G867ArXUdgfji-320" value="" style="edgeStyle=elbowEdgeStyle;elbow=horizontal;strokeWidth=2;rounded=0;exitX=1;exitY=0.5;exitDx=0;exitDy=0;entryX=1;entryY=0.5;entryDx=0;entryDy=0;" edge="1" parent="1" source="LBzVhK5G867ArXUdgfji-291" target="LBzVhK5G867ArXUdgfji-304">
          <mxGeometry x="745" y="697.74" width="100" height="100" as="geometry">
            <mxPoint x="-80" y="930" as="sourcePoint" />
            <mxPoint x="-30" y="1030" as="targetPoint" />
            <Array as="points">
              <mxPoint x="-10" y="954.5" />
            </Array>
          </mxGeometry>
        </mxCell>
        <mxCell id="LBzVhK5G867ArXUdgfji-321" value="" style="edgeStyle=elbowEdgeStyle;elbow=horizontal;strokeWidth=2;rounded=0;exitX=1;exitY=0.5;exitDx=0;exitDy=0;entryX=1;entryY=0.5;entryDx=0;entryDy=0;" edge="1" parent="1" source="LBzVhK5G867ArXUdgfji-291" target="LBzVhK5G867ArXUdgfji-305">
          <mxGeometry x="745" y="697.24" width="100" height="100" as="geometry">
            <mxPoint x="-80" y="930" as="sourcePoint" />
            <mxPoint x="-30" y="1072.5" as="targetPoint" />
            <Array as="points">
              <mxPoint x="-10" y="954" />
            </Array>
          </mxGeometry>
        </mxCell>
        <mxCell id="LBzVhK5G867ArXUdgfji-322" value="" style="edgeStyle=elbowEdgeStyle;elbow=horizontal;strokeWidth=2;rounded=0;exitX=1;exitY=0.5;exitDx=0;exitDy=0;entryX=1;entryY=0.5;entryDx=0;entryDy=0;" edge="1" parent="1" source="LBzVhK5G867ArXUdgfji-291" target="LBzVhK5G867ArXUdgfji-306">
          <mxGeometry x="745" y="694.74" width="100" height="100" as="geometry">
            <mxPoint x="-80" y="930" as="sourcePoint" />
            <mxPoint x="-30" y="1110" as="targetPoint" />
            <Array as="points">
              <mxPoint x="-10" y="951.5" />
            </Array>
          </mxGeometry>
        </mxCell>
        <mxCell id="LBzVhK5G867ArXUdgfji-323" value="" style="edgeStyle=elbowEdgeStyle;elbow=horizontal;strokeWidth=2;rounded=0;exitX=1;exitY=0.5;exitDx=0;exitDy=0;entryX=1;entryY=0.5;entryDx=0;entryDy=0;" edge="1" parent="1" source="LBzVhK5G867ArXUdgfji-291" target="LBzVhK5G867ArXUdgfji-308">
          <mxGeometry x="745" y="694.49" width="100" height="100" as="geometry">
            <mxPoint x="-80" y="930" as="sourcePoint" />
            <mxPoint x="-30" y="1153.25" as="targetPoint" />
            <Array as="points">
              <mxPoint x="-10" y="951.25" />
            </Array>
          </mxGeometry>
        </mxCell>
        <mxCell id="LBzVhK5G867ArXUdgfji-324" value="" style="edgeStyle=elbowEdgeStyle;elbow=horizontal;strokeWidth=2;rounded=0;exitX=1;exitY=0.5;exitDx=0;exitDy=0;entryX=1;entryY=0.5;entryDx=0;entryDy=0;" edge="1" parent="1" source="LBzVhK5G867ArXUdgfji-291" target="LBzVhK5G867ArXUdgfji-309">
          <mxGeometry x="745" y="697.74" width="100" height="100" as="geometry">
            <mxPoint x="-80" y="930" as="sourcePoint" />
            <mxPoint x="-30" y="1197.75" as="targetPoint" />
            <Array as="points">
              <mxPoint x="-10" y="954.5" />
            </Array>
          </mxGeometry>
        </mxCell>
        <mxCell id="LBzVhK5G867ArXUdgfji-325" value="" style="edgeStyle=elbowEdgeStyle;elbow=horizontal;strokeWidth=2;rounded=0;exitX=1;exitY=0.5;exitDx=0;exitDy=0;entryX=1;entryY=0.5;entryDx=0;entryDy=0;" edge="1" parent="1" source="LBzVhK5G867ArXUdgfji-291" target="LBzVhK5G867ArXUdgfji-310">
          <mxGeometry x="745" y="696.49" width="100" height="100" as="geometry">
            <mxPoint x="-80" y="930" as="sourcePoint" />
            <mxPoint x="-30" y="1234.25" as="targetPoint" />
            <Array as="points">
              <mxPoint x="-10" y="953.25" />
            </Array>
          </mxGeometry>
        </mxCell>
        <mxCell id="LBzVhK5G867ArXUdgfji-326" value="" style="edgeStyle=elbowEdgeStyle;elbow=horizontal;strokeWidth=2;rounded=0;exitX=1;exitY=0.5;exitDx=0;exitDy=0;entryX=1;entryY=0.5;entryDx=0;entryDy=0;" edge="1" parent="1" source="LBzVhK5G867ArXUdgfji-291" target="LBzVhK5G867ArXUdgfji-311">
          <mxGeometry x="745" y="698.99" width="100" height="100" as="geometry">
            <mxPoint x="-80" y="930" as="sourcePoint" />
            <mxPoint x="-50" y="1280.0000000000002" as="targetPoint" />
            <Array as="points">
              <mxPoint x="-10" y="955.75" />
            </Array>
          </mxGeometry>
        </mxCell>
        <mxCell id="LBzVhK5G867ArXUdgfji-327" value="" style="edgeStyle=elbowEdgeStyle;elbow=horizontal;strokeWidth=2;rounded=0;exitX=1;exitY=0.5;exitDx=0;exitDy=0;entryX=1;entryY=0.5;entryDx=0;entryDy=0;" edge="1" parent="1" source="LBzVhK5G867ArXUdgfji-291" target="LBzVhK5G867ArXUdgfji-312">
          <mxGeometry x="745" y="700.74" width="100" height="100" as="geometry">
            <mxPoint x="-80" y="930" as="sourcePoint" />
            <mxPoint x="-50" y="1321.25" as="targetPoint" />
            <Array as="points">
              <mxPoint x="-10" y="957.5" />
            </Array>
          </mxGeometry>
        </mxCell>
        <mxCell id="LBzVhK5G867ArXUdgfji-328" value="" style="edgeStyle=elbowEdgeStyle;elbow=horizontal;strokeWidth=2;rounded=0;exitX=1;exitY=0.5;exitDx=0;exitDy=0;entryX=1;entryY=0.5;entryDx=0;entryDy=0;" edge="1" parent="1" source="LBzVhK5G867ArXUdgfji-291" target="LBzVhK5G867ArXUdgfji-313">
          <mxGeometry x="745" y="700.74" width="100" height="100" as="geometry">
            <mxPoint x="-80" y="930" as="sourcePoint" />
            <mxPoint x="-30" y="1360.5000000000002" as="targetPoint" />
            <Array as="points">
              <mxPoint x="-10" y="957.5" />
            </Array>
          </mxGeometry>
        </mxCell>
        <mxCell id="LBzVhK5G867ArXUdgfji-329" value="" style="edgeStyle=elbowEdgeStyle;elbow=horizontal;strokeWidth=2;rounded=0;exitX=1;exitY=0.5;exitDx=0;exitDy=0;entryX=1;entryY=0.25;entryDx=0;entryDy=0;" edge="1" parent="1" source="LBzVhK5G867ArXUdgfji-291" target="LBzVhK5G867ArXUdgfji-314">
          <mxGeometry x="745" y="700.74" width="100" height="100" as="geometry">
            <mxPoint x="-80" y="930" as="sourcePoint" />
            <mxPoint x="-30" y="1402.4999999999998" as="targetPoint" />
            <Array as="points">
              <mxPoint x="-10" y="957.5" />
            </Array>
          </mxGeometry>
        </mxCell>
        <mxCell id="LBzVhK5G867ArXUdgfji-330" value="" style="edgeStyle=elbowEdgeStyle;elbow=horizontal;strokeWidth=2;rounded=0;exitX=1;exitY=0.5;exitDx=0;exitDy=0;entryX=1;entryY=0.5;entryDx=0;entryDy=0;" edge="1" parent="1" source="LBzVhK5G867ArXUdgfji-291" target="LBzVhK5G867ArXUdgfji-315">
          <mxGeometry x="745" y="700.74" width="100" height="100" as="geometry">
            <mxPoint x="-80" y="930" as="sourcePoint" />
            <mxPoint x="-30" y="1436.2499999999998" as="targetPoint" />
            <Array as="points">
              <mxPoint x="-10" y="957.5" />
            </Array>
          </mxGeometry>
        </mxCell>
        <mxCell id="LBzVhK5G867ArXUdgfji-331" value="" style="edgeStyle=elbowEdgeStyle;elbow=horizontal;strokeWidth=2;rounded=0;exitX=1;exitY=0.5;exitDx=0;exitDy=0;entryX=1;entryY=0.5;entryDx=0;entryDy=0;" edge="1" parent="1" source="LBzVhK5G867ArXUdgfji-291" target="LBzVhK5G867ArXUdgfji-316">
          <mxGeometry x="745" y="700.74" width="100" height="100" as="geometry">
            <mxPoint x="-80" y="930" as="sourcePoint" />
            <mxPoint x="-50" y="1487.4999999999998" as="targetPoint" />
            <Array as="points">
              <mxPoint x="-10" y="957.5" />
            </Array>
          </mxGeometry>
        </mxCell>
        <mxCell id="LBzVhK5G867ArXUdgfji-332" value="&lt;font&gt;&lt;font color=&quot;rgba(0, 0, 0, 0)&quot; face=&quot;monospace&quot;&gt;&lt;span style=&quot;font-size: 0px&quot;&gt;user-menu-info&lt;/span&gt;&lt;/font&gt;&lt;span style=&quot;font-size: 14px&quot;&gt;&lt;b&gt;skip-forbidden-errors.strategy.ts&lt;/b&gt;&lt;/span&gt;&lt;/font&gt;&lt;b&gt;&lt;font style=&quot;font-size: 14px&quot;&gt;&lt;br&gt;&lt;/font&gt;&lt;/b&gt;" style="rounded=0;whiteSpace=wrap;html=1;fillColor=#d5e8d4;strokeColor=#82B366;" vertex="1" parent="1">
          <mxGeometry x="-200" y="1630" width="150" height="35" as="geometry" />
        </mxCell>
        <mxCell id="LBzVhK5G867ArXUdgfji-333" value="" style="endArrow=classic;html=1;rounded=0;fontSize=14;strokeWidth=2;exitX=0.5;exitY=1;exitDx=0;exitDy=0;" edge="1" parent="1">
          <mxGeometry width="50" height="50" relative="1" as="geometry">
            <mxPoint x="-160" y="1610" as="sourcePoint" />
            <mxPoint x="-160" y="1630" as="targetPoint" />
          </mxGeometry>
        </mxCell>
        <mxCell id="LBzVhK5G867ArXUdgfji-334" value="&lt;font&gt;&lt;font color=&quot;rgba(0, 0, 0, 0)&quot; face=&quot;monospace&quot;&gt;&lt;span style=&quot;font-size: 0px&quot;&gt;user-menu-info&lt;/span&gt;&lt;/font&gt;&lt;span style=&quot;font-size: 14px&quot;&gt;&lt;b&gt;signalr.token.ts&lt;/b&gt;&lt;/span&gt;&lt;/font&gt;&lt;b&gt;&lt;font style=&quot;font-size: 14px&quot;&gt;&lt;br&gt;&lt;/font&gt;&lt;/b&gt;" style="rounded=0;whiteSpace=wrap;html=1;fillColor=#d5e8d4;strokeColor=#82B366;" vertex="1" parent="1">
          <mxGeometry x="-200" y="1786" width="150" height="35" as="geometry" />
        </mxCell>
        <mxCell id="LBzVhK5G867ArXUdgfji-335" value="&lt;font&gt;&lt;font color=&quot;rgba(0, 0, 0, 0)&quot; face=&quot;monospace&quot;&gt;&lt;span style=&quot;font-size: 0px&quot;&gt;r-menu-info&lt;/span&gt;&lt;/font&gt;&lt;span style=&quot;font-size: 14px&quot;&gt;&lt;b&gt;data-flow-host-url.token.ts&lt;/b&gt;&lt;/span&gt;&lt;/font&gt;&lt;b&gt;&lt;font style=&quot;font-size: 14px&quot;&gt;&lt;br&gt;&lt;/font&gt;&lt;/b&gt;" style="rounded=0;whiteSpace=wrap;html=1;fillColor=#d5e8d4;strokeColor=#82B366;" vertex="1" parent="1">
          <mxGeometry x="-200" y="1742.5" width="150" height="35" as="geometry" />
        </mxCell>
        <mxCell id="LBzVhK5G867ArXUdgfji-336" value="" style="edgeStyle=elbowEdgeStyle;elbow=horizontal;strokeWidth=2;rounded=0;exitX=1;exitY=0.5;exitDx=0;exitDy=0;entryX=1;entryY=0.5;entryDx=0;entryDy=0;" edge="1" parent="1">
          <mxGeometry x="745" y="1473.24" width="100" height="100" as="geometry">
            <mxPoint x="-80" y="1700" as="sourcePoint" />
            <mxPoint x="-50" y="1763" as="targetPoint" />
            <Array as="points">
              <mxPoint x="-10" y="1730" />
            </Array>
          </mxGeometry>
        </mxCell>
        <mxCell id="LBzVhK5G867ArXUdgfji-337" value="" style="edgeStyle=elbowEdgeStyle;elbow=horizontal;strokeWidth=2;rounded=0;exitX=1;exitY=0.5;exitDx=0;exitDy=0;entryX=1;entryY=0.5;entryDx=0;entryDy=0;" edge="1" parent="1" target="LBzVhK5G867ArXUdgfji-334">
          <mxGeometry x="745" y="1467.74" width="100" height="100" as="geometry">
            <mxPoint x="-80" y="1700" as="sourcePoint" />
            <mxPoint x="-30" y="1800" as="targetPoint" />
            <Array as="points">
              <mxPoint x="-10" y="1724.5" />
            </Array>
          </mxGeometry>
        </mxCell>
        <mxCell id="LBzVhK5G867ArXUdgfji-339" value="&lt;b&gt;&lt;font style=&quot;font-size: 14px&quot;&gt;color-classes.enum.ts&lt;/font&gt;&lt;/b&gt;&lt;b&gt;&lt;font style=&quot;font-size: 14px&quot;&gt;&lt;br&gt;&lt;/font&gt;&lt;/b&gt;" style="rounded=0;whiteSpace=wrap;html=1;fillColor=#d5e8d4;strokeColor=#82B366;" vertex="1" parent="1">
          <mxGeometry x="30" y="635" width="150" height="35" as="geometry" />
        </mxCell>
        <mxCell id="LBzVhK5G867ArXUdgfji-340" value="" style="edgeStyle=elbowEdgeStyle;elbow=horizontal;strokeWidth=2;rounded=0;exitX=0;exitY=0.5;exitDx=0;exitDy=0;entryX=0;entryY=0.25;entryDx=0;entryDy=0;" edge="1" parent="1" source="LBzVhK5G867ArXUdgfji-222" target="LBzVhK5G867ArXUdgfji-339">
          <mxGeometry x="-253" y="296" width="100" height="100" as="geometry">
            <mxPoint x="-10" y="580" as="sourcePoint" />
            <mxPoint x="-10" y="644.6666463216146" as="targetPoint" />
            <Array as="points">
              <mxPoint y="610" />
            </Array>
          </mxGeometry>
        </mxCell>
        <mxCell id="LBzVhK5G867ArXUdgfji-341" value="&lt;b&gt;&lt;font style=&quot;font-size: 14px&quot;&gt;color.enum.ts&lt;/font&gt;&lt;/b&gt;&lt;b&gt;&lt;font style=&quot;font-size: 14px&quot;&gt;&lt;br&gt;&lt;/font&gt;&lt;/b&gt;" style="rounded=0;whiteSpace=wrap;html=1;fillColor=#d5e8d4;strokeColor=#82B366;" vertex="1" parent="1">
          <mxGeometry x="30" y="680" width="150" height="35" as="geometry" />
        </mxCell>
        <mxCell id="LBzVhK5G867ArXUdgfji-342" value="&lt;b&gt;&lt;font style=&quot;font-size: 14px&quot;&gt;custom-tag.enum.ts&lt;/font&gt;&lt;/b&gt;&lt;b&gt;&lt;font style=&quot;font-size: 14px&quot;&gt;&lt;br&gt;&lt;/font&gt;&lt;/b&gt;" style="rounded=0;whiteSpace=wrap;html=1;fillColor=#d5e8d4;strokeColor=#82B366;" vertex="1" parent="1">
          <mxGeometry x="30" y="725.5" width="150" height="35" as="geometry" />
        </mxCell>
        <mxCell id="LBzVhK5G867ArXUdgfji-343" value="&lt;b&gt;&lt;font style=&quot;font-size: 14px&quot;&gt;html-tag.enum.ts&lt;/font&gt;&lt;/b&gt;&lt;b&gt;&lt;font style=&quot;font-size: 14px&quot;&gt;&lt;br&gt;&lt;/font&gt;&lt;/b&gt;" style="rounded=0;whiteSpace=wrap;html=1;fillColor=#d5e8d4;strokeColor=#82B366;" vertex="1" parent="1">
          <mxGeometry x="30" y="770" width="150" height="35" as="geometry" />
        </mxCell>
        <mxCell id="LBzVhK5G867ArXUdgfji-344" value="&lt;b&gt;&lt;font style=&quot;font-size: 14px&quot;&gt;icons.enum.ts&lt;/font&gt;&lt;/b&gt;&lt;b&gt;&lt;font style=&quot;font-size: 14px&quot;&gt;&lt;br&gt;&lt;/font&gt;&lt;/b&gt;" style="rounded=0;whiteSpace=wrap;html=1;fillColor=#d5e8d4;strokeColor=#82B366;" vertex="1" parent="1">
          <mxGeometry x="30" y="813" width="150" height="35" as="geometry" />
        </mxCell>
        <mxCell id="LBzVhK5G867ArXUdgfji-345" value="&lt;b&gt;&lt;font style=&quot;font-size: 14px&quot;&gt;overlay-colors.enum.ts&lt;/font&gt;&lt;/b&gt;&lt;b&gt;&lt;font style=&quot;font-size: 14px&quot;&gt;&lt;br&gt;&lt;/font&gt;&lt;/b&gt;" style="rounded=0;whiteSpace=wrap;html=1;fillColor=#d5e8d4;strokeColor=#82B366;" vertex="1" parent="1">
          <mxGeometry x="30" y="856" width="150" height="35" as="geometry" />
        </mxCell>
        <mxCell id="LBzVhK5G867ArXUdgfji-346" value="&lt;b&gt;&lt;font style=&quot;font-size: 14px&quot;&gt;pipeline-routes.enum.ts&lt;/font&gt;&lt;/b&gt;&lt;b&gt;&lt;font style=&quot;font-size: 14px&quot;&gt;&lt;br&gt;&lt;/font&gt;&lt;/b&gt;" style="rounded=0;whiteSpace=wrap;html=1;fillColor=#d5e8d4;strokeColor=#82B366;" vertex="1" parent="1">
          <mxGeometry x="30" y="898" width="150" height="35" as="geometry" />
        </mxCell>
        <mxCell id="LBzVhK5G867ArXUdgfji-347" value="&lt;b&gt;&lt;font style=&quot;font-size: 14px&quot;&gt;response-status-code.enum.ts&lt;/font&gt;&lt;/b&gt;&lt;b&gt;&lt;font style=&quot;font-size: 14px&quot;&gt;&lt;br&gt;&lt;/font&gt;&lt;/b&gt;" style="rounded=0;whiteSpace=wrap;html=1;fillColor=#d5e8d4;strokeColor=#82B366;" vertex="1" parent="1">
          <mxGeometry x="30" y="941" width="150" height="35" as="geometry" />
        </mxCell>
        <mxCell id="LBzVhK5G867ArXUdgfji-348" value="&lt;b&gt;&lt;font style=&quot;font-size: 14px&quot;&gt;rest-method.enum.ts&lt;/font&gt;&lt;/b&gt;&lt;b&gt;&lt;font style=&quot;font-size: 14px&quot;&gt;&lt;br&gt;&lt;/font&gt;&lt;/b&gt;" style="rounded=0;whiteSpace=wrap;html=1;fillColor=#d5e8d4;strokeColor=#82B366;" vertex="1" parent="1">
          <mxGeometry x="30" y="984" width="150" height="35" as="geometry" />
        </mxCell>
        <mxCell id="LBzVhK5G867ArXUdgfji-349" value="&lt;b&gt;&lt;font style=&quot;font-size: 14px&quot;&gt;task-status.enum.ts&lt;/font&gt;&lt;/b&gt;&lt;b&gt;&lt;font style=&quot;font-size: 14px&quot;&gt;&lt;br&gt;&lt;/font&gt;&lt;/b&gt;" style="rounded=0;whiteSpace=wrap;html=1;fillColor=#d5e8d4;strokeColor=#82B366;" vertex="1" parent="1">
          <mxGeometry x="30" y="1026" width="150" height="35" as="geometry" />
        </mxCell>
        <mxCell id="LBzVhK5G867ArXUdgfji-350" value="&lt;b&gt;&lt;font style=&quot;font-size: 14px&quot;&gt;validation-error-type.enum.ts&lt;/font&gt;&lt;/b&gt;&lt;b&gt;&lt;font style=&quot;font-size: 14px&quot;&gt;&lt;br&gt;&lt;/font&gt;&lt;/b&gt;" style="rounded=0;whiteSpace=wrap;html=1;fillColor=#d5e8d4;strokeColor=#82B366;" vertex="1" parent="1">
          <mxGeometry x="30" y="1069" width="150" height="35" as="geometry" />
        </mxCell>
        <mxCell id="LBzVhK5G867ArXUdgfji-351" value="" style="edgeStyle=elbowEdgeStyle;elbow=horizontal;strokeWidth=2;rounded=0;entryX=0;entryY=0.5;entryDx=0;entryDy=0;" edge="1" parent="1" target="LBzVhK5G867ArXUdgfji-341">
          <mxGeometry x="-253" y="296" width="100" height="100" as="geometry">
            <mxPoint x="10" y="580" as="sourcePoint" />
            <mxPoint x="30" y="643.75" as="targetPoint" />
            <Array as="points">
              <mxPoint y="640" />
            </Array>
          </mxGeometry>
        </mxCell>
        <mxCell id="LBzVhK5G867ArXUdgfji-352" value="" style="edgeStyle=elbowEdgeStyle;elbow=horizontal;strokeWidth=2;rounded=0;exitX=0;exitY=0.5;exitDx=0;exitDy=0;entryX=0;entryY=0.5;entryDx=0;entryDy=0;" edge="1" parent="1" source="LBzVhK5G867ArXUdgfji-222" target="LBzVhK5G867ArXUdgfji-342">
          <mxGeometry x="-253" y="296" width="100" height="100" as="geometry">
            <mxPoint x="-10" y="580" as="sourcePoint" />
            <mxPoint x="20" y="740" as="targetPoint" />
            <Array as="points">
              <mxPoint y="660" />
              <mxPoint x="-10" y="730" />
              <mxPoint x="-30" y="640" />
            </Array>
          </mxGeometry>
        </mxCell>
        <mxCell id="LBzVhK5G867ArXUdgfji-353" value="" style="edgeStyle=elbowEdgeStyle;elbow=horizontal;strokeWidth=2;rounded=0;entryX=0;entryY=0.5;entryDx=0;entryDy=0;" edge="1" parent="1" target="LBzVhK5G867ArXUdgfji-343">
          <mxGeometry x="-253" y="296" width="100" height="100" as="geometry">
            <mxPoint x="10" y="580" as="sourcePoint" />
            <mxPoint x="30" y="743" as="targetPoint" />
            <Array as="points">
              <mxPoint y="680" />
              <mxPoint x="-10" y="730" />
              <mxPoint x="-30" y="640" />
            </Array>
          </mxGeometry>
        </mxCell>
        <mxCell id="LBzVhK5G867ArXUdgfji-354" value="" style="edgeStyle=elbowEdgeStyle;elbow=horizontal;strokeWidth=2;rounded=0;entryX=0;entryY=0.5;entryDx=0;entryDy=0;" edge="1" parent="1" target="LBzVhK5G867ArXUdgfji-344">
          <mxGeometry x="-253" y="296" width="100" height="100" as="geometry">
            <mxPoint x="10" y="580" as="sourcePoint" />
            <mxPoint x="30" y="787.5" as="targetPoint" />
            <Array as="points">
              <mxPoint y="700" />
              <mxPoint x="-10" y="730" />
              <mxPoint x="-30" y="640" />
            </Array>
          </mxGeometry>
        </mxCell>
        <mxCell id="LBzVhK5G867ArXUdgfji-355" value="" style="edgeStyle=elbowEdgeStyle;elbow=horizontal;strokeWidth=2;rounded=0;entryX=0;entryY=0.5;entryDx=0;entryDy=0;" edge="1" parent="1" target="LBzVhK5G867ArXUdgfji-345">
          <mxGeometry x="-253" y="296" width="100" height="100" as="geometry">
            <mxPoint x="10" y="580" as="sourcePoint" />
            <mxPoint x="30" y="830.5" as="targetPoint" />
            <Array as="points">
              <mxPoint y="720" />
              <mxPoint x="-10" y="730" />
              <mxPoint x="-30" y="640" />
            </Array>
          </mxGeometry>
        </mxCell>
        <mxCell id="LBzVhK5G867ArXUdgfji-356" value="" style="edgeStyle=elbowEdgeStyle;elbow=horizontal;strokeWidth=2;rounded=0;exitX=0;exitY=0.5;exitDx=0;exitDy=0;entryX=0;entryY=0.5;entryDx=0;entryDy=0;" edge="1" parent="1" source="LBzVhK5G867ArXUdgfji-222" target="LBzVhK5G867ArXUdgfji-346">
          <mxGeometry x="-253" y="296" width="100" height="100" as="geometry">
            <mxPoint x="-10" y="580" as="sourcePoint" />
            <mxPoint x="30" y="873.5" as="targetPoint" />
            <Array as="points">
              <mxPoint y="740" />
            </Array>
          </mxGeometry>
        </mxCell>
        <mxCell id="LBzVhK5G867ArXUdgfji-357" value="" style="edgeStyle=elbowEdgeStyle;elbow=horizontal;strokeWidth=2;rounded=0;exitX=0;exitY=0.5;exitDx=0;exitDy=0;entryX=0;entryY=0.5;entryDx=0;entryDy=0;" edge="1" parent="1" target="LBzVhK5G867ArXUdgfji-347">
          <mxGeometry x="-253" y="296" width="100" height="100" as="geometry">
            <mxPoint x="10" y="580" as="sourcePoint" />
            <mxPoint x="30" y="915.5" as="targetPoint" />
            <Array as="points">
              <mxPoint y="740" />
            </Array>
          </mxGeometry>
        </mxCell>
        <mxCell id="LBzVhK5G867ArXUdgfji-358" value="" style="edgeStyle=elbowEdgeStyle;elbow=horizontal;strokeWidth=2;rounded=0;exitX=0;exitY=0.5;exitDx=0;exitDy=0;entryX=0;entryY=0.5;entryDx=0;entryDy=0;" edge="1" parent="1" target="LBzVhK5G867ArXUdgfji-348">
          <mxGeometry x="-253" y="296" width="100" height="100" as="geometry">
            <mxPoint x="10" y="580" as="sourcePoint" />
            <mxPoint x="30" y="958.5" as="targetPoint" />
            <Array as="points">
              <mxPoint y="740" />
            </Array>
          </mxGeometry>
        </mxCell>
        <mxCell id="LBzVhK5G867ArXUdgfji-359" value="" style="edgeStyle=elbowEdgeStyle;elbow=horizontal;strokeWidth=2;rounded=0;exitX=0;exitY=0.5;exitDx=0;exitDy=0;entryX=0;entryY=0.5;entryDx=0;entryDy=0;" edge="1" parent="1" target="LBzVhK5G867ArXUdgfji-349">
          <mxGeometry x="-253" y="296" width="100" height="100" as="geometry">
            <mxPoint x="10" y="580" as="sourcePoint" />
            <mxPoint x="30" y="1001.5" as="targetPoint" />
            <Array as="points">
              <mxPoint y="740" />
            </Array>
          </mxGeometry>
        </mxCell>
        <mxCell id="LBzVhK5G867ArXUdgfji-360" value="" style="edgeStyle=elbowEdgeStyle;elbow=horizontal;strokeWidth=2;rounded=0;exitX=0;exitY=0.5;exitDx=0;exitDy=0;entryX=0;entryY=0.25;entryDx=0;entryDy=0;" edge="1" parent="1" target="LBzVhK5G867ArXUdgfji-350">
          <mxGeometry x="-253" y="296" width="100" height="100" as="geometry">
            <mxPoint x="10" y="580" as="sourcePoint" />
            <mxPoint x="20" y="1080" as="targetPoint" />
            <Array as="points">
              <mxPoint y="740" />
            </Array>
          </mxGeometry>
        </mxCell>
      </root>
    </mxGraphModel>
  </diagram>
</mxfile>
